<svg id="fcc73aef-a59d-4276-bb73-157a62179d45" data-name="圖層 1" xmlns="http://www.w3.org/2000/svg" viewBox="0 0 280.95 281.47"><defs><style>.a07c4c0c-77b3-411a-aedc-c97c22ea2fce{fill:#f7bd11;}</style></defs><title>github_logo</title><path class="a07c4c0c-77b3-411a-aedc-c97c22ea2fce" d="M282.21,145.59c-.13,22.34-6.62,46.75-20.39,69.1-19.56,31.73-47.53,53-84.19,63.05a135.62,135.62,0,0,1-54.95,3.34A140.81,140.81,0,0,1,4.76,172.91a138.85,138.85,0,0,1-2-51.55,137.29,137.29,0,0,1,25.85-63c19-25.59,43.92-43.15,75-52.07A140.25,140.25,0,0,1,237.35,38.7a138.82,138.82,0,0,1,37.42,57.74C279.81,111.18,282.22,126.34,282.21,145.59ZM108.53,239.08l-2.65.45a51.81,51.81,0,0,1-18.5.32c-9.12-1.68-16.45-6.07-21.22-14-1.79-3-2.93-6.3-4.49-9.41-3.05-6.08-7-11.45-13-15.12a18,18,0,0,1-4-3.61c-1.3-1.49-.87-3,1-3.46a17.09,17.09,0,0,1,5.55-.52,21.94,21.94,0,0,1,11.37,4.83,37.64,37.64,0,0,1,8.81,10.34c3.6,5.73,8.47,10.05,15.25,11.94,7,2,13.8.77,20.48-1.65a3.21,3.21,0,0,0,2.32-2.86,27.71,27.71,0,0,1,7.19-15c.16-.17.28-.38.55-.74-.65-.12-1.13-.24-1.61-.3a103.27,103.27,0,0,1-21.71-4.89c-16-5.73-27.19-16.2-32.7-32.13-3.58-10.35-4.62-21-4.13-31.88a49.62,49.62,0,0,1,12.06-30.65c1.08-1.27,1.62-2.34.73-3.87a6.55,6.55,0,0,1-.5-1.68c-2.58-10.13-1.52-20,1.9-29.82a2.49,2.49,0,0,1,2.67-1.92,35.43,35.43,0,0,1,12.29,2.25,92.19,92.19,0,0,1,21,10.9,3.32,3.32,0,0,0,2.74.49c5.69-1.15,11.36-2.48,17.11-3.22a119.51,119.51,0,0,1,44.69,2.74,7,7,0,0,0,6.22-1A79.88,79.88,0,0,1,199.77,65,30.34,30.34,0,0,1,210,63.55a2,2,0,0,1,2.13,1.56c.56,2,1.35,4,1.87,6.11,2.13,8.56,2.36,17.13-.32,25.61a3.7,3.7,0,0,0,.84,4.09A49.26,49.26,0,0,1,226.42,130a89.11,89.11,0,0,1-2,26.39c-4.45,19.38-16,32.66-35.37,39.26a108.46,108.46,0,0,1-21.38,4.65c-.42.06-.84.17-1.39.28,1.1,1.36,2.13,2.48,3,3.71,4,5.81,5.56,12.37,5.61,19.24.1,12.2,0,24.39-.05,36.58,0,.8,0,1.59,0,2.38a6,6,0,0,0,5.7,5.76,11,11,0,0,0,4.16-.46,129.34,129.34,0,0,0,47.19-28.08q34.39-32,41.44-78a132.78,132.78,0,0,0-41-117.38A133,133,0,0,0,104.07,14.1,131.25,131.25,0,0,0,37,59.65a129.92,129.92,0,0,0-26.88,62.46,130.65,130.65,0,0,0,3.08,54.17c8.54,31.12,26.17,56.22,53,75.05a128.28,128.28,0,0,0,32.62,16.43c4.6,1.55,10.06-.23,9.91-6.76-.16-6.76-.11-13.53-.16-20.29C108.63,240.23,108.58,239.74,108.53,239.08Z" transform="translate(-1.25 -1)"/></svg>