<?xml version="1.0" standalone="no"?>
<!DOCTYPE svg PUBLIC "-//W3C//DTD SVG 20010904//EN"
 "http://www.w3.org/TR/2001/REC-SVG-20010904/DTD/svg10.dtd">
<svg version="1.0" xmlns="http://www.w3.org/2000/svg"
 width="6000.000000pt" height="4000.000000pt" viewBox="0 0 6000.000000 4000.000000"
 preserveAspectRatio="xMidYMid meet">

<g transform="translate(0.000000,4000.000000) scale(0.100000,-0.100000)"
fill="#000000" stroke="none">
<path d="M51360 36685 l0 -1095 -9200 0 -9200 0 0 -1780 0 -1780 -3680 0
-3680 0 0 1780 0 1780 -3680 0 -3680 0 0 -3560 0 -3560 -1840 0 -1840 0 0
1780 0 1780 -3680 0 -3680 0 0 -1780 0 -1780 -1840 0 -1840 0 0 -3560 0 -3560
-690 0 -690 0 0 -865 c0 -762 2 -865 15 -865 10 0 15 10 15 30 0 19 7 34 20
42 11 7 20 21 20 30 0 9 6 21 13 25 7 4 21 21 31 37 10 16 31 33 47 39 16 6
29 17 29 24 0 8 11 18 25 23 14 5 25 16 25 24 0 8 9 17 19 21 11 3 22 12 25
20 3 8 11 15 18 15 7 0 18 10 23 23 7 15 20 23 41 25 22 2 34 9 37 23 3 11 14
19 26 19 13 0 21 6 21 16 0 9 9 18 20 21 11 3 20 12 20 20 0 8 9 17 20 20 10
3 22 13 25 23 3 10 20 20 37 24 17 3 37 15 45 26 8 11 23 20 34 20 10 0 19 5
19 10 0 6 6 10 14 10 8 0 17 11 20 25 5 18 15 26 40 31 22 4 36 13 39 25 3 12
14 19 31 19 19 0 32 10 48 35 13 20 34 38 48 42 14 3 35 17 47 30 12 12 28 23
36 23 8 0 22 9 32 20 10 11 23 20 29 20 7 0 19 9 29 20 9 11 26 20 37 20 10 0
24 9 30 20 6 11 19 20 29 20 10 0 21 9 24 20 3 12 14 20 26 20 12 0 30 9 40
19 10 10 28 22 40 26 12 3 21 10 21 16 0 5 15 15 32 22 18 8 39 21 47 30 7 10
20 17 28 17 7 0 16 7 19 15 3 8 21 17 39 21 21 4 35 13 38 25 4 14 14 19 41
19 26 0 36 4 36 15 0 9 11 20 25 25 14 5 25 14 25 20 0 6 11 15 25 20 14 5 25
14 25 19 0 5 15 14 33 20 18 6 40 20 50 31 9 11 28 20 41 20 16 0 27 7 31 20
4 14 15 20 35 20 19 0 33 7 40 20 6 11 19 20 29 20 11 0 21 7 24 15 4 8 22 21
42 29 19 8 35 20 35 25 0 6 11 11 24 11 15 0 26 7 29 19 3 13 17 22 41 26 21
4 36 13 36 21 0 8 13 17 29 20 17 4 38 15 47 25 9 11 22 19 28 19 7 0 19 9 29
20 9 11 29 20 43 20 17 0 28 6 31 19 3 13 17 21 44 25 24 4 39 12 39 21 0 8
14 17 35 21 20 3 40 15 46 25 5 11 15 19 22 19 7 0 20 9 30 20 9 11 26 20 37
20 11 0 25 9 32 20 7 11 20 20 28 20 9 0 23 9 33 20 9 11 28 20 42 20 14 0 28
7 32 15 3 9 20 22 37 31 50 23 76 40 89 56 7 9 25 19 42 23 16 3 35 15 43 26
7 11 25 19 40 19 16 0 32 8 40 20 7 11 23 20 37 20 14 0 29 8 35 20 6 11 19
20 29 20 11 0 22 7 25 15 3 9 20 21 37 27 21 7 36 22 45 44 8 19 19 34 24 34
6 0 10 28 10 63 0 65 15 137 29 137 5 0 11 18 15 40 3 23 13 43 21 46 10 4 15
20 15 49 0 65 19 148 35 158 9 5 15 22 15 42 0 22 8 43 20 55 16 16 20 33 20
89 0 53 4 74 20 94 11 14 20 38 20 55 0 16 9 41 20 55 15 18 20 40 20 84 0 70
8 103 25 103 7 0 14 18 18 45 2 25 11 54 20 63 9 10 18 48 22 94 5 54 13 84
26 99 11 12 19 33 19 46 0 14 8 37 19 51 13 19 20 49 23 105 3 61 7 81 21 88
11 6 17 22 17 43 0 20 8 40 20 51 13 12 20 31 20 57 0 24 7 45 18 56 14 14 20
40 25 96 4 52 12 87 26 110 12 18 21 45 21 59 0 14 7 30 16 35 11 6 18 33 23
97 6 63 13 92 25 100 9 7 16 24 16 39 0 14 9 35 20 46 13 13 20 33 20 60 0 26
7 47 19 59 13 13 19 38 23 95 3 49 11 82 21 94 8 9 18 34 22 54 4 21 13 42 21
48 7 7 16 32 20 56 4 26 12 44 19 44 9 0 15 22 20 68 9 98 15 123 31 129 9 3
14 20 14 43 0 24 7 43 20 55 12 11 20 31 20 52 0 19 8 41 19 52 13 13 20 38
23 89 3 40 12 82 21 95 9 13 19 40 22 60 4 20 13 41 20 47 8 6 16 29 20 51 4
21 13 43 21 47 9 5 17 38 23 95 5 56 14 94 25 106 9 10 16 27 16 38 0 32 10
53 26 53 9 0 14 12 14 35 0 37 18 85 32 85 4 0 8 13 8 29 0 38 9 61 25 61 8 0
14 25 18 75 4 51 12 86 26 109 12 18 21 43 21 56 0 12 9 33 20 47 11 14 20 38
20 53 0 15 9 35 20 45 12 11 20 31 20 51 0 42 9 64 26 64 9 0 14 12 14 35 0
37 18 85 32 85 4 0 8 24 8 53 0 33 7 67 19 91 11 21 23 52 27 69 3 18 13 40
21 49 8 9 17 35 20 57 3 22 14 48 24 57 11 10 19 31 19 50 0 23 5 34 19 39 14
4 20 18 23 57 4 33 11 54 22 60 10 6 16 22 16 43 0 22 7 39 19 47 14 10 19 30
23 85 4 52 11 79 27 98 11 15 21 36 21 46 0 11 9 36 20 56 11 21 20 47 20 58
0 11 9 31 20 45 11 14 20 37 20 53 0 15 9 36 20 47 11 11 20 33 20 50 0 19 7
34 20 42 14 9 20 24 20 49 0 21 8 47 20 62 11 14 20 37 20 51 0 14 8 33 19 43
10 10 21 33 25 52 3 19 13 43 22 52 9 10 18 36 21 59 4 25 13 44 24 51 13 7
19 21 19 45 0 27 5 37 20 41 15 4 20 14 20 42 0 25 6 40 20 49 15 9 20 23 20
52 0 28 6 45 20 57 11 10 20 29 20 44 0 14 9 38 20 52 11 14 20 32 20 40 0 8
9 26 20 39 10 14 22 44 26 67 4 25 15 47 25 54 12 8 19 23 19 44 0 22 6 36 20
43 14 7 20 21 20 44 0 20 8 40 20 51 11 10 20 26 20 36 0 22 21 69 30 69 4 0
10 13 13 29 3 16 13 36 22 45 9 9 21 32 26 51 6 22 19 39 37 47 17 8 30 26 36
48 5 19 18 41 28 48 10 7 18 26 18 42 0 16 11 41 24 57 13 15 26 37 30 49 3
12 20 33 37 48 16 15 32 40 36 56 3 17 12 30 19 30 8 0 18 10 23 23 5 12 25
38 44 57 20 19 38 44 41 56 4 13 19 26 36 33 20 7 36 22 45 45 10 24 23 36 43
41 20 4 33 16 43 38 9 22 24 35 46 41 17 6 34 18 36 28 3 10 13 18 24 18 10 0
34 16 53 36 19 19 46 38 60 41 14 3 30 14 37 23 7 10 26 20 43 24 18 3 43 15
57 26 16 12 41 20 64 20 27 0 39 4 39 14 0 18 22 26 76 26 31 0 44 4 44 14 0
18 22 26 68 26 19 0 43 7 53 16 11 10 52 19 120 25 57 6 122 18 144 27 58 25
528 23 595 -2 25 -9 82 -20 127 -23 63 -4 86 -10 99 -24 13 -14 31 -19 75 -19
44 0 63 -5 76 -19 11 -11 38 -20 67 -24 29 -3 55 -12 61 -21 7 -9 20 -16 30
-16 22 0 165 -70 165 -82 0 -4 6 -8 13 -8 8 0 22 -9 32 -20 10 -11 26 -20 36
-20 10 0 21 -9 24 -20 4 -13 15 -20 30 -20 13 0 29 -6 34 -12 38 -47 59 -66
79 -72 12 -4 22 -14 22 -22 0 -8 8 -17 18 -21 20 -7 72 -53 72 -64 0 -12 43
-55 63 -62 10 -4 17 -17 17 -32 0 -18 11 -31 39 -49 22 -14 42 -34 45 -44 4
-11 15 -27 26 -37 11 -10 20 -24 20 -31 0 -7 16 -30 35 -51 20 -21 38 -49 42
-63 3 -14 15 -31 25 -38 10 -7 18 -24 18 -37 0 -12 14 -37 30 -55 30 -32 100
-165 100 -189 0 -7 9 -24 20 -38 11 -14 20 -32 20 -40 0 -8 9 -26 20 -40 11
-14 20 -35 20 -47 0 -12 9 -27 20 -34 12 -7 20 -23 20 -41 0 -15 8 -36 19 -45
10 -9 21 -34 25 -55 3 -22 13 -41 21 -45 8 -3 18 -23 21 -46 4 -22 10 -40 14
-40 9 0 30 -47 30 -69 0 -10 9 -28 20 -41 11 -13 20 -36 20 -52 0 -17 9 -41
20 -55 12 -15 20 -41 20 -63 0 -28 5 -39 19 -43 13 -3 19 -17 23 -51 3 -26 12
-55 21 -64 8 -9 17 -33 21 -53 4 -21 13 -42 21 -49 8 -6 17 -33 20 -58 3 -26
13 -59 21 -74 8 -14 14 -34 14 -43 0 -9 6 -29 14 -43 8 -15 20 -48 27 -75 6
-26 16 -50 20 -53 5 -3 9 -16 9 -29 0 -13 5 -27 10 -30 6 -3 10 -19 10 -36 0
-16 4 -29 9 -29 4 0 14 -21 20 -47 7 -27 21 -64 31 -84 10 -20 22 -59 26 -87
3 -28 12 -53 20 -56 7 -3 16 -26 20 -53 4 -26 13 -57 19 -68 7 -11 16 -37 20
-59 3 -21 10 -46 15 -55 4 -9 13 -43 20 -76 6 -33 20 -77 31 -97 11 -21 19
-57 19 -82 0 -33 4 -46 14 -46 17 0 26 -22 26 -61 0 -16 7 -40 15 -52 8 -13
19 -53 24 -91 5 -37 14 -73 19 -79 4 -7 14 -32 21 -57 7 -25 20 -58 28 -73 8
-16 17 -56 20 -90 3 -34 12 -70 20 -79 9 -9 18 -38 21 -63 2 -25 9 -48 13 -51
5 -3 9 -16 9 -29 0 -13 5 -27 10 -30 5 -3 10 -22 10 -42 0 -22 6 -41 16 -48
11 -7 18 -31 21 -66 2 -30 8 -63 13 -74 4 -11 13 -40 19 -65 7 -25 23 -79 37
-120 13 -41 24 -90 24 -107 0 -18 4 -33 8 -33 5 0 14 -19 21 -41 9 -31 15 -39
24 -30 6 6 26 11 44 11 20 0 41 8 53 20 13 13 33 20 59 20 30 0 40 4 44 20 3
14 14 20 31 20 14 0 35 9 45 19 10 10 38 22 62 26 24 4 55 16 68 26 13 11 35
19 49 19 14 0 30 7 37 16 6 9 32 18 58 21 33 4 51 12 58 24 7 13 21 19 44 19
22 0 43 8 55 20 12 12 33 20 53 20 20 0 41 8 51 19 9 10 34 21 55 25 22 3 41
12 44 20 3 7 22 17 43 21 21 4 50 15 65 26 15 10 37 19 50 19 12 0 30 7 40 16
10 9 36 18 58 21 22 3 48 14 57 24 9 11 30 19 46 19 15 0 37 9 48 20 12 12 33
20 55 20 22 0 43 8 55 20 11 11 31 20 45 20 14 0 34 9 45 20 11 11 38 23 60
26 23 4 40 12 40 19 0 8 18 16 43 20 64 10 77 15 77 31 0 8 8 14 18 14 10 0
25 9 35 20 9 11 28 20 42 20 14 0 34 9 45 20 14 14 33 20 65 20 37 0 45 3 45
19 0 14 10 20 42 25 23 4 47 14 53 23 7 9 32 18 62 20 39 4 52 10 56 24 4 16
15 19 60 19 46 0 55 3 60 20 4 16 14 20 46 20 30 0 41 4 41 15 0 12 13 15 60
15 57 0 60 1 60 25 0 23 4 25 43 25 31 0 49 6 62 20 12 13 37 21 76 26 36 4
63 12 68 21 4 8 27 17 52 20 24 3 52 13 63 22 16 14 68 16 467 16 402 0 449
-2 461 -16 7 -9 35 -19 63 -23 28 -3 55 -12 60 -20 6 -8 36 -17 68 -21 47 -6
57 -11 57 -26 0 -15 7 -19 39 -19 30 0 42 -5 55 -25 10 -16 26 -25 42 -25 13
0 27 -7 30 -15 4 -8 14 -15 24 -15 9 0 25 -9 34 -19 10 -11 28 -22 41 -25 12
-3 25 -15 28 -26 3 -11 12 -20 21 -20 9 0 16 -7 16 -15 0 -9 11 -20 25 -25 14
-5 25 -16 25 -25 0 -8 7 -15 15 -15 8 0 17 -11 21 -24 3 -14 12 -27 19 -30 7
-2 16 -19 20 -36 4 -18 16 -41 26 -51 14 -14 19 -34 19 -71 1 -31 7 -61 15
-72 19 -26 19 -65 0 -72 -11 -5 -15 -22 -15 -69 0 -47 -5 -68 -20 -88 -11 -14
-20 -32 -20 -41 0 -8 -6 -19 -14 -23 -7 -4 -21 -23 -30 -41 -9 -18 -24 -36
-32 -39 -7 -3 -14 -10 -14 -15 0 -23 -52 -58 -86 -58 -31 0 -34 -2 -34 -30 0
-23 -5 -30 -19 -30 -10 0 -21 -9 -24 -20 -3 -11 -13 -20 -22 -20 -9 0 -24 -9
-33 -21 -11 -12 -34 -23 -61 -26 -31 -4 -45 -11 -48 -24 -4 -14 -15 -19 -43
-19 -29 0 -39 -4 -43 -20 -4 -15 -14 -20 -41 -20 -23 0 -43 -7 -56 -20 -14
-14 -33 -20 -63 -20 -31 0 -45 -5 -55 -20 -9 -16 -23 -20 -61 -20 -40 0 -51
-4 -56 -19 -3 -12 -19 -21 -43 -25 -20 -3 -55 -15 -77 -26 -21 -11 -50 -20
-64 -20 -13 0 -29 -8 -36 -17 -9 -13 -32 -18 -83 -21 -59 -3 -71 -7 -75 -23
-4 -15 -14 -19 -56 -19 -40 0 -52 -4 -61 -20 -9 -17 -21 -20 -75 -20 -49 0
-65 -3 -65 -14 0 -19 -22 -26 -84 -26 -39 0 -57 -5 -70 -19 -11 -12 -37 -21
-76 -25 -32 -4 -63 -13 -70 -20 -6 -8 -39 -17 -73 -21 -41 -5 -68 -14 -80 -26
-10 -11 -31 -19 -47 -19 -16 0 -33 -7 -38 -16 -5 -10 -27 -18 -55 -21 -27 -3
-53 -13 -63 -24 -10 -12 -31 -19 -51 -19 -20 0 -46 -9 -60 -20 -15 -12 -41
-20 -63 -20 -29 0 -39 -4 -43 -20 -4 -15 -14 -20 -37 -20 -18 0 -43 -8 -56
-19 -13 -10 -44 -22 -68 -25 -24 -4 -47 -13 -50 -21 -3 -10 -20 -15 -46 -15
-30 0 -47 -7 -66 -25 -16 -16 -36 -25 -55 -25 -17 0 -42 -9 -56 -20 -15 -12
-41 -20 -62 -20 -25 0 -40 -6 -49 -20 -9 -14 -23 -20 -51 -20 -24 0 -44 -7
-55 -19 -9 -10 -34 -21 -55 -25 -21 -3 -44 -12 -51 -20 -6 -8 -32 -18 -57 -22
-24 -3 -47 -12 -50 -20 -2 -7 -23 -16 -46 -20 -23 -3 -46 -13 -52 -21 -6 -8
-29 -17 -52 -20 -23 -3 -50 -14 -59 -24 -10 -11 -31 -19 -50 -19 -23 0 -37 -6
-44 -20 -7 -14 -21 -20 -43 -20 -21 0 -36 -7 -44 -19 -7 -11 -28 -20 -54 -24
-24 -3 -48 -13 -54 -21 -7 -8 -30 -18 -53 -22 -22 -3 -43 -12 -46 -20 -3 -7
-22 -16 -43 -20 -21 -4 -49 -15 -62 -25 -13 -11 -36 -19 -52 -19 -18 0 -32 -7
-39 -20 -8 -15 -21 -20 -49 -20 -30 0 -40 -4 -44 -20 -4 -15 -14 -20 -41 -20
l-37 0 15 -28 c8 -16 20 -60 27 -98 6 -38 15 -73 19 -79 5 -5 13 -39 19 -75 7
-36 16 -74 21 -85 19 -43 30 -90 30 -124 0 -21 4 -41 9 -46 4 -6 14 -39 21
-75 6 -36 19 -81 28 -100 8 -19 17 -57 19 -85 3 -27 8 -59 13 -70 4 -11 13
-47 20 -80 6 -33 18 -72 26 -87 8 -15 19 -64 25 -110 6 -45 14 -85 18 -88 8
-5 14 -29 27 -115 4 -22 13 -48 22 -57 9 -11 17 -47 20 -90 3 -40 11 -83 19
-94 7 -12 16 -46 20 -75 3 -30 13 -62 21 -72 10 -11 18 -43 20 -85 2 -38 12
-85 23 -108 10 -22 19 -57 19 -78 0 -20 9 -54 20 -76 11 -22 20 -59 20 -82 0
-24 7 -56 15 -71 8 -16 20 -56 26 -90 6 -34 17 -78 24 -97 7 -19 16 -60 20
-90 4 -30 14 -64 21 -76 8 -12 18 -50 23 -85 5 -35 16 -90 25 -122 9 -32 16
-68 16 -79 0 -12 8 -30 17 -40 10 -12 18 -42 21 -81 3 -34 11 -71 18 -82 7
-11 18 -51 24 -88 6 -38 17 -79 25 -91 8 -12 17 -48 21 -81 3 -33 12 -69 19
-80 6 -11 15 -40 19 -64 4 -24 10 -49 14 -55 13 -20 31 -101 32 -140 0 -22 7
-48 17 -58 9 -10 18 -42 21 -73 2 -31 8 -58 13 -61 5 -3 9 -16 9 -29 0 -13 4
-26 9 -29 5 -3 11 -30 13 -61 3 -31 12 -63 21 -73 10 -11 17 -35 17 -61 0 -24
6 -57 14 -74 21 -48 36 -111 36 -147 0 -19 7 -38 17 -45 11 -8 18 -32 20 -71
3 -32 13 -77 24 -100 10 -22 19 -59 19 -82 0 -23 4 -42 8 -42 15 0 32 -50 32
-95 0 -25 5 -45 10 -45 6 0 10 -11 10 -25 0 -32 27 -134 39 -149 6 -7 16 -46
23 -87 6 -41 18 -81 25 -90 7 -8 13 -28 13 -43 0 -16 6 -42 14 -59 19 -44 36
-119 36 -161 0 -24 5 -36 14 -36 17 0 26 -31 26 -92 0 -26 5 -50 10 -53 6 -3
10 -17 10 -30 0 -13 5 -27 10 -30 6 -3 10 -25 10 -49 0 -29 6 -48 19 -60 12
-11 20 -36 24 -72 3 -31 13 -64 21 -73 9 -10 16 -33 16 -52 0 -36 41 -176 72
-245 10 -22 18 -59 18 -81 0 -26 5 -43 14 -46 8 -3 17 -28 21 -59 7 -55 21
-111 36 -140 5 -10 9 -40 9 -67 0 -39 4 -50 19 -54 15 -4 19 -17 23 -67 3 -44
9 -65 21 -72 12 -6 17 -22 17 -54 0 -26 6 -60 14 -77 31 -74 36 -90 36 -122 0
-19 4 -35 8 -35 15 0 32 -50 32 -94 0 -26 6 -48 15 -56 8 -7 18 -34 21 -61 4
-27 11 -52 15 -55 5 -3 9 -16 9 -29 0 -13 5 -27 10 -30 6 -3 10 -31 10 -60 0
-43 4 -56 19 -64 14 -8 20 -25 23 -67 3 -39 10 -59 21 -66 12 -6 17 -23 17
-56 0 -29 8 -64 21 -87 11 -22 23 -62 26 -90 4 -27 13 -55 21 -61 8 -5 16 -32
19 -60 3 -27 11 -54 19 -60 8 -6 16 -33 20 -60 6 -55 22 -121 35 -146 5 -10 9
-36 9 -57 0 -27 6 -44 18 -53 12 -8 21 -32 25 -62 4 -27 13 -57 21 -65 8 -9
17 -48 21 -88 4 -41 13 -77 20 -83 8 -7 17 -33 21 -58 3 -26 13 -54 21 -63 7
-9 16 -40 20 -70 3 -30 12 -59 21 -66 8 -7 17 -35 20 -65 2 -31 11 -58 20 -65
9 -8 17 -35 20 -70 3 -32 11 -67 18 -79 8 -11 19 -47 25 -79 6 -32 17 -68 24
-79 7 -12 17 -39 21 -61 3 -22 11 -46 17 -52 5 -7 15 -41 22 -75 7 -35 20 -89
29 -121 9 -32 16 -68 16 -81 0 -13 9 -31 20 -41 15 -14 20 -31 20 -69 0 -39 5
-56 20 -69 15 -13 20 -29 20 -70 0 -33 7 -67 20 -92 11 -22 20 -47 20 -57 0
-10 9 -34 19 -54 11 -20 23 -60 27 -90 3 -29 12 -55 19 -58 8 -3 16 -31 20
-70 4 -36 11 -66 15 -66 7 0 12 -21 26 -120 4 -25 15 -53 25 -63 14 -13 19
-32 19 -72 0 -40 4 -55 14 -55 19 0 26 -22 26 -81 0 -27 7 -60 15 -72 8 -13
19 -53 24 -90 5 -36 17 -76 25 -89 9 -12 16 -39 16 -58 0 -20 5 -41 12 -48 11
-11 15 -32 33 -152 4 -25 13 -59 21 -77 8 -17 14 -41 14 -53 0 -12 6 -34 14
-48 19 -37 36 -114 36 -162 0 -23 8 -53 18 -67 15 -24 17 -58 17 -328 l0 -300
-29 -60 c-16 -33 -44 -77 -63 -98 -18 -20 -33 -45 -33 -55 0 -20 -39 -62 -58
-62 -7 0 -17 -11 -22 -25 -5 -14 -16 -25 -24 -25 -9 0 -20 -9 -26 -20 -6 -11
-17 -20 -25 -20 -8 0 -15 -7 -15 -15 0 -8 -11 -17 -24 -21 -14 -3 -32 -14 -42
-25 -9 -10 -25 -19 -34 -19 -10 0 -29 -9 -43 -20 -14 -11 -47 -23 -74 -26 -27
-4 -56 -15 -66 -25 -12 -13 -32 -19 -59 -19 -25 0 -49 -7 -60 -17 -14 -12 -51
-19 -141 -26 -68 -6 -127 -15 -134 -22 -28 -29 -472 -29 -519 0 -11 7 -60 16
-108 20 -63 5 -92 12 -104 25 -10 10 -38 20 -65 22 -26 3 -56 13 -66 22 -10 9
-33 16 -53 16 -19 0 -46 8 -59 19 -13 10 -35 22 -49 26 -14 4 -36 16 -49 26
-13 11 -30 19 -37 19 -7 0 -19 8 -26 18 -7 10 -21 21 -31 25 -9 3 -17 13 -17
22 0 8 -9 15 -19 15 -11 0 -22 9 -26 19 -3 10 -15 21 -25 24 -11 3 -20 12 -20
21 0 9 -9 25 -20 36 -11 11 -20 29 -20 39 0 11 -9 23 -20 26 -11 3 -20 15 -20
25 0 9 -9 20 -20 23 -12 3 -20 14 -20 25 0 31 -11 52 -26 52 -8 0 -14 9 -14
20 0 10 -9 24 -20 30 -10 6 -22 26 -26 44 -4 22 -13 36 -25 39 -14 4 -19 14
-19 41 0 29 -4 36 -20 36 -13 0 -20 7 -20 20 0 11 -7 20 -15 20 -9 0 -20 11
-24 24 -5 13 -17 26 -25 29 -9 4 -16 17 -16 30 0 14 -9 36 -20 50 -11 14 -23
46 -26 70 -5 33 -12 47 -25 50 -11 3 -19 14 -19 25 0 11 -18 38 -40 61 -22 22
-40 50 -40 61 0 11 -6 23 -14 26 -8 3 -18 20 -22 37 -4 18 -14 37 -24 44 -10
7 -20 32 -24 62 -4 28 -12 54 -19 58 -28 18 -67 90 -67 125 0 27 -5 37 -20 41
-12 3 -20 14 -20 26 0 12 -6 21 -14 21 -16 0 -26 21 -26 56 0 17 -6 24 -20 24
-17 0 -20 7 -20 40 0 33 -3 40 -20 40 -13 0 -20 7 -20 19 0 10 -9 25 -21 32
-13 9 -22 29 -26 57 -4 27 -13 48 -24 55 -11 7 -19 19 -19 28 0 9 -9 19 -20
22 -11 3 -20 14 -20 25 0 10 -9 27 -20 37 -11 10 -20 26 -20 37 0 10 -7 18
-15 18 -9 0 -20 11 -25 25 -5 14 -16 25 -25 25 -8 0 -15 8 -15 19 0 10 -9 21
-19 24 -13 3 -22 17 -26 41 -4 21 -13 36 -21 36 -8 0 -17 8 -21 18 -3 9 -23
33 -44 53 -27 25 -39 45 -39 64 0 18 -6 28 -20 32 -13 3 -20 14 -20 29 0 17
-6 24 -20 24 -11 0 -20 7 -20 15 0 8 -7 15 -15 15 -9 0 -19 8 -22 18 -4 9 -17
31 -30 48 -13 17 -23 36 -23 42 0 7 -7 12 -15 12 -9 0 -20 11 -25 25 -5 14
-16 25 -25 25 -8 0 -15 9 -15 20 0 12 -7 20 -16 20 -9 0 -18 9 -21 19 -3 11
-13 21 -23 24 -10 3 -20 18 -24 39 -5 25 -13 36 -36 45 -20 7 -35 24 -45 47
-9 20 -22 36 -30 36 -8 0 -15 8 -15 19 0 10 -9 21 -20 24 -32 8 -26 57 11 93
l30 29 242 0 c133 0 255 -4 270 -8 19 -5 33 -19 43 -42 8 -19 21 -35 29 -35 8
0 15 -5 15 -10 0 -6 11 -20 25 -32 14 -12 25 -28 25 -35 0 -7 7 -13 15 -13 8
0 15 -7 15 -15 0 -9 11 -20 25 -25 20 -8 25 -16 25 -44 0 -29 4 -34 30 -40 23
-4 35 -15 46 -41 8 -19 18 -35 23 -35 4 0 21 -20 37 -45 15 -25 36 -45 45 -45
19 0 29 -20 29 -56 0 -17 6 -24 19 -24 10 0 22 -7 25 -15 3 -9 22 -23 41 -31
23 -9 35 -21 35 -34 0 -11 11 -30 25 -42 14 -12 25 -28 25 -35 0 -7 7 -13 16
-13 9 0 18 -9 21 -20 3 -11 12 -20 19 -20 8 0 19 -10 25 -23 9 -21 9 -21 4 3
-2 14 -5 48 -5 76 0 36 -6 56 -20 72 -11 12 -20 35 -20 52 0 17 -9 43 -19 58
-10 15 -22 49 -25 76 -3 27 -12 57 -20 65 -8 9 -17 50 -21 91 -5 47 -13 79
-22 85 -8 6 -17 33 -20 60 -4 27 -14 56 -24 66 -13 13 -19 34 -19 64 0 32 -6
51 -20 65 -17 17 -20 33 -20 100 0 69 -3 81 -20 90 -13 7 -20 21 -20 38 0 15
-8 43 -19 62 -10 19 -22 54 -25 77 -4 23 -13 44 -20 46 -8 3 -16 33 -20 73 -4
38 -11 73 -15 79 -12 15 -31 99 -31 138 0 26 -5 36 -20 40 -17 4 -20 14 -20
60 0 46 -3 55 -20 60 -17 4 -20 14 -20 61 0 43 -5 61 -20 76 -15 15 -20 33
-20 74 0 39 -7 68 -25 102 -14 26 -25 59 -25 74 0 16 -6 30 -14 33 -9 4 -17
28 -22 64 -3 32 -11 61 -16 64 -13 9 -27 81 -28 145 0 43 -3 53 -20 57 -17 4
-20 14 -20 56 0 40 -4 53 -20 63 -14 9 -20 24 -20 52 0 25 -6 43 -17 51 -12 9
-18 34 -22 98 -4 59 -11 90 -23 103 -9 11 -20 43 -24 72 -4 33 -11 52 -20 52
-9 0 -15 20 -20 60 -4 35 -12 64 -21 68 -9 6 -16 36 -20 95 -5 66 -10 90 -24
103 -13 12 -19 31 -19 59 0 29 -6 47 -20 60 -13 12 -20 31 -20 53 0 20 -8 44
-18 55 -12 14 -19 43 -23 104 -4 63 -9 87 -21 94 -10 5 -19 30 -23 61 -4 29
-14 57 -21 63 -8 5 -17 35 -21 65 -3 30 -13 60 -21 66 -9 7 -16 38 -19 98 -5
71 -9 89 -24 97 -15 7 -19 21 -19 58 0 35 -5 53 -20 66 -14 12 -20 31 -20 58
0 23 -7 48 -16 58 -10 11 -18 46 -23 97 -4 52 -12 84 -23 95 -8 9 -19 37 -23
64 -4 26 -13 52 -20 58 -9 6 -17 43 -21 100 -5 62 -12 93 -22 101 -9 7 -17 33
-20 68 -3 36 -9 56 -17 56 -15 0 -25 32 -25 84 0 25 -6 43 -17 52 -14 9 -19
31 -21 92 -3 64 -8 84 -23 98 -12 11 -19 31 -19 56 0 22 -8 51 -19 66 -12 17
-21 52 -24 97 -4 41 -14 86 -26 110 -12 21 -21 50 -21 64 0 13 -7 32 -15 41
-9 10 -18 41 -21 71 -3 30 -9 63 -13 74 -14 34 -31 114 -31 143 0 15 -9 35
-20 45 -15 13 -20 29 -20 70 0 33 -7 67 -20 92 -12 24 -20 59 -20 92 0 38 -5
57 -19 70 -11 11 -21 40 -25 72 -4 29 -13 63 -21 75 -7 11 -17 57 -21 101 -4
52 -12 84 -22 91 -8 6 -17 34 -20 65 -3 30 -11 59 -19 65 -10 7 -17 38 -20
100 -5 71 -10 92 -25 102 -13 10 -18 26 -18 64 0 36 -5 54 -17 63 -12 9 -18
34 -22 93 -4 56 -11 86 -24 99 -9 11 -17 35 -17 54 0 19 -7 44 -15 55 -8 12
-20 64 -26 115 -7 52 -19 102 -26 111 -8 9 -17 36 -20 60 -2 24 -8 52 -13 63
-14 35 -30 112 -30 150 0 22 -8 47 -20 62 -12 16 -20 41 -20 64 0 22 -4 47 -9
57 -13 27 -31 109 -31 146 0 18 -8 44 -19 57 -13 17 -20 50 -25 114 -5 64 -12
93 -23 102 -8 7 -18 33 -20 60 -3 26 -13 56 -22 67 -11 13 -17 43 -20 105 -2
68 -7 90 -22 104 -12 12 -19 31 -19 57 0 22 -4 40 -8 40 -18 0 -32 54 -32 125
0 62 -4 79 -20 95 -14 14 -20 33 -20 65 0 32 -6 52 -20 67 -13 14 -20 36 -20
59 0 20 -3 50 -6 67 -6 28 -7 29 -38 19 -17 -5 -38 -13 -46 -18 -89 -48 -155
-79 -169 -79 -10 0 -26 -9 -36 -20 -11 -12 -31 -20 -52 -20 -18 0 -33 -4 -33
-10 0 -5 -11 -10 -25 -10 -14 0 -25 -6 -25 -13 0 -20 -33 -47 -56 -47 -11 0
-25 -9 -32 -20 -7 -12 -23 -20 -40 -20 -16 0 -32 -8 -39 -19 -6 -10 -27 -21
-46 -25 -19 -4 -38 -13 -41 -21 -3 -8 -21 -17 -40 -20 -19 -4 -37 -13 -40 -20
-3 -8 -22 -17 -42 -21 -20 -4 -45 -15 -55 -25 -11 -11 -30 -19 -44 -19 -14 0
-25 -6 -25 -13 0 -7 -18 -21 -40 -31 -22 -10 -40 -22 -40 -27 0 -5 -8 -9 -18
-9 -11 0 -27 -9 -37 -20 -10 -11 -28 -20 -40 -20 -12 0 -30 -9 -39 -19 -10
-11 -32 -23 -48 -26 -17 -4 -39 -16 -49 -26 -10 -10 -32 -19 -49 -19 -19 0
-34 -7 -42 -20 -7 -11 -22 -20 -33 -20 -11 0 -28 -9 -38 -20 -9 -11 -26 -20
-37 -20 -10 0 -24 -9 -30 -20 -6 -11 -19 -20 -29 -20 -10 0 -26 -8 -35 -19 -9
-10 -29 -21 -44 -24 -15 -3 -38 -15 -51 -26 -13 -12 -34 -21 -45 -21 -12 0
-29 -9 -39 -20 -11 -13 -29 -20 -52 -20 -28 0 -35 -4 -35 -20 0 -13 -7 -20
-20 -20 -11 0 -29 -9 -40 -20 -11 -11 -29 -20 -40 -20 -10 0 -24 -8 -29 -19
-6 -10 -26 -22 -46 -25 -19 -4 -35 -13 -35 -20 0 -8 -13 -16 -29 -19 -16 -3
-36 -13 -44 -22 -9 -8 -31 -15 -49 -15 -25 0 -36 -6 -43 -22 -6 -13 -18 -24
-28 -26 -11 -2 -27 -12 -38 -23 -10 -10 -27 -19 -37 -19 -9 0 -23 -9 -30 -20
-7 -12 -23 -20 -41 -20 -20 0 -30 -6 -34 -20 -3 -11 -14 -20 -25 -20 -10 0
-31 -9 -45 -21 -15 -11 -42 -23 -61 -26 -22 -3 -36 -12 -39 -24 -3 -11 -14
-19 -26 -19 -12 0 -21 -5 -21 -10 0 -6 -12 -16 -27 -23 -15 -6 -36 -20 -45
-29 -10 -10 -23 -18 -29 -18 -6 0 -22 -9 -36 -20 -14 -11 -32 -20 -40 -20 -8
0 -26 -9 -40 -20 -14 -11 -32 -20 -40 -20 -8 0 -29 -11 -47 -25 -18 -14 -40
-25 -48 -25 -9 0 -18 -7 -22 -15 -3 -8 -12 -15 -20 -15 -9 0 -20 -9 -26 -19
-5 -11 -24 -22 -41 -26 -17 -4 -40 -16 -50 -26 -10 -10 -28 -19 -39 -19 -11 0
-29 -9 -40 -20 -11 -11 -28 -20 -39 -20 -10 0 -36 -16 -57 -36 -22 -19 -52
-38 -67 -41 -15 -3 -32 -14 -37 -23 -5 -10 -25 -21 -44 -24 -19 -4 -36 -13
-39 -20 -3 -8 -20 -17 -37 -21 -39 -9 -80 -49 -80 -79 0 -13 -9 -35 -20 -49
-13 -16 -20 -41 -20 -69 -1 -52 -15 -119 -28 -127 -5 -3 -13 -30 -17 -59 -4
-29 -13 -56 -20 -58 -7 -3 -15 -36 -19 -86 -4 -54 -13 -93 -26 -114 -13 -20
-20 -49 -20 -81 0 -35 -6 -58 -20 -76 -12 -15 -20 -40 -20 -64 0 -24 -7 -47
-19 -59 -13 -15 -19 -41 -23 -99 -4 -53 -10 -82 -20 -89 -8 -6 -17 -33 -20
-59 -3 -26 -12 -56 -21 -65 -9 -11 -16 -46 -19 -95 -3 -49 -11 -84 -20 -95 -9
-10 -18 -48 -22 -91 -4 -46 -13 -82 -22 -92 -10 -11 -18 -47 -23 -98 -4 -54
-12 -86 -24 -99 -10 -11 -17 -35 -17 -58 0 -23 -8 -49 -20 -64 -15 -19 -20
-41 -20 -97 0 -58 -4 -76 -19 -90 -14 -14 -20 -36 -23 -95 -2 -52 -9 -82 -19
-95 -11 -12 -18 -44 -21 -97 -4 -58 -10 -82 -22 -91 -11 -8 -16 -28 -16 -61
-1 -62 -15 -135 -28 -143 -5 -3 -13 -40 -17 -81 -4 -41 -16 -92 -26 -112 -12
-24 -19 -58 -19 -98 0 -45 -5 -65 -19 -79 -14 -14 -20 -37 -22 -99 -3 -58 -9
-85 -22 -99 -13 -15 -17 -37 -17 -91 0 -57 -4 -76 -19 -91 -15 -15 -20 -37
-22 -104 -3 -63 -8 -90 -22 -104 -13 -15 -17 -37 -17 -89 -1 -79 -13 -154 -27
-163 -6 -3 -13 -44 -17 -91 -4 -49 -14 -95 -23 -109 -11 -17 -18 -61 -22 -137
-5 -89 -10 -116 -23 -126 -14 -11 -17 -34 -20 -129 -2 -92 -7 -121 -20 -135
-13 -15 -17 -45 -20 -145 -2 -102 -6 -131 -20 -145 -14 -16 -17 -47 -20 -182
-2 -137 -6 -166 -19 -176 -14 -10 -17 -41 -21 -213 -3 -173 -6 -204 -21 -221
-15 -16 -17 -46 -18 -258 0 -244 -8 -341 -26 -352 -5 -4 -13 -61 -17 -126 -6
-118 -21 -196 -38 -196 -4 0 -8 -20 -8 -45 0 -34 -5 -48 -20 -57 -11 -7 -20
-18 -20 -24 0 -14 -53 -64 -67 -64 -7 0 -15 -9 -18 -20 -3 -11 -15 -20 -25
-20 -9 0 -20 -8 -23 -18 -4 -19 -44 -32 -93 -32 -14 0 -24 -6 -24 -14 0 -17
-22 -26 -61 -26 -16 0 -38 -9 -49 -20 -17 -17 -33 -20 -125 -20 -83 0 -105 -3
-105 -14 0 -8 -7 -17 -16 -20 -9 -3 -110 -6 -225 -6 -196 0 -210 1 -229 20
-17 17 -33 20 -120 20 -89 0 -100 2 -110 20 -7 14 -21 20 -43 20 -46 0 -77 10
-77 25 0 7 -18 15 -40 19 -22 3 -49 15 -60 26 -11 11 -29 20 -41 20 -12 0 -23
8 -26 19 -3 11 -13 21 -23 24 -11 3 -20 18 -24 41 -4 20 -13 36 -20 36 -17 0
-26 22 -26 61 0 18 -5 29 -14 29 -21 0 -26 23 -26 129 0 85 -3 100 -20 116
-19 17 -20 31 -20 347 0 274 -2 328 -14 328 -8 0 -17 7 -20 16 -3 9 -6 139 -6
290 0 261 1 275 20 294 19 19 20 33 20 360 0 326 5 390 31 390 4 0 9 99 11
219 3 185 6 222 19 237 14 15 18 50 21 181 3 122 8 167 20 185 10 16 17 63 22
148 5 88 12 132 24 150 12 19 17 63 21 193 5 145 8 170 23 181 14 11 18 28 18
88 0 59 4 81 19 100 16 20 20 44 23 150 2 99 7 130 19 144 11 13 18 45 21 97
3 52 10 83 22 95 10 12 16 37 16 68 1 63 15 135 28 143 5 3 13 66 17 140 7
112 11 136 26 149 15 13 19 30 19 79 0 67 -10 73 -52 31 -10 -10 -31 -18 -47
-18 -20 0 -30 -6 -34 -20 -4 -15 -14 -20 -39 -20 -22 0 -37 -6 -46 -20 -7 -12
-23 -20 -41 -20 -20 0 -30 -6 -34 -20 -3 -12 -14 -20 -26 -20 -12 0 -30 -9
-41 -20 -11 -11 -33 -20 -50 -20 -19 0 -34 -7 -42 -20 -7 -11 -22 -20 -33 -20
-11 0 -25 -8 -32 -19 -6 -10 -25 -21 -42 -24 -17 -4 -40 -16 -51 -27 -11 -11
-29 -20 -40 -20 -11 0 -29 -9 -40 -20 -11 -11 -31 -20 -45 -20 -16 0 -25 -6
-25 -15 0 -9 -9 -15 -23 -15 -13 0 -34 -11 -47 -25 -13 -14 -34 -25 -47 -25
-12 0 -28 -9 -35 -20 -7 -11 -22 -20 -33 -20 -11 0 -25 -8 -32 -19 -6 -10 -25
-21 -42 -24 -18 -4 -31 -13 -31 -21 0 -9 -14 -18 -36 -22 -20 -4 -45 -15 -55
-25 -13 -13 -33 -19 -64 -19 -32 0 -51 -6 -65 -20 -14 -14 -33 -20 -63 -20
-31 0 -45 -5 -55 -20 -12 -19 -23 -20 -442 -20 -405 0 -431 1 -449 19 -10 10
-39 20 -66 24 -27 3 -54 11 -59 19 -6 9 -35 17 -65 20 -34 3 -59 12 -66 22 -7
9 -27 19 -45 22 -19 4 -35 14 -37 25 -3 10 -13 21 -23 24 -10 3 -21 12 -24 20
-3 8 -12 15 -20 15 -26 0 -66 49 -66 79 0 16 -7 34 -15 41 -13 11 -15 -75 -15
-764 l0 -776 690 0 690 0 0 -1780 0 -1780 1840 0 1840 0 0 1780 0 1780 1840 0
1840 0 0 -3560 0 -3560 3680 0 3680 0 0 1780 0 1780 3680 0 3680 0 0 -5340 0
-5340 1840 0 1840 0 0 7120 0 7120 1840 0 1840 0 0 1780 0 1780 1840 0 1840 0
0 -5340 0 -5340 1840 0 1840 0 0 1780 0 1780 5520 0 5520 0 0 -5340 0 -5340
1840 0 1840 0 0 -665 0 -665 843 1 c463 1 834 3 825 6 -10 2 -18 8 -18 13 0 5
-19 10 -42 12 -32 2 -44 8 -46 21 -5 25 -38 57 -59 57 -34 0 -63 12 -63 26 0
8 -9 14 -21 14 -12 0 -23 8 -26 19 -3 12 -17 21 -39 25 -18 4 -38 16 -44 26
-6 11 -17 20 -25 20 -7 0 -16 9 -20 19 -3 10 -15 21 -25 24 -14 3 -20 14 -20
31 0 19 -5 26 -20 26 -11 0 -20 7 -20 15 0 8 -7 15 -15 15 -10 0 -17 14 -21
40 -5 30 -11 40 -25 40 -15 0 -19 8 -19 40 0 33 -3 40 -20 40 -15 0 -20 7 -20
28 0 16 -9 37 -20 47 -13 12 -21 37 -26 76 -4 40 -11 59 -20 59 -8 0 -16 16
-20 40 -4 22 -12 40 -19 40 -14 0 -25 22 -25 50 0 11 -9 24 -20 30 -12 7 -20
21 -20 38 0 18 -12 39 -35 61 -20 19 -38 44 -41 57 -3 12 -14 24 -25 27 -14 4
-19 14 -19 39 0 22 -6 37 -19 45 -15 9 -21 29 -26 88 -4 41 -11 75 -15 75 -11
0 -30 58 -30 91 0 18 -5 29 -14 29 -16 0 -26 21 -26 57 0 14 -9 36 -20 50 -12
16 -20 41 -20 64 0 26 -7 46 -20 59 -11 11 -20 31 -20 45 0 14 -7 37 -16 51
-10 15 -20 61 -25 117 -6 58 -16 107 -29 132 -11 21 -20 54 -20 72 0 19 -7 45
-16 59 -10 14 -19 54 -22 97 -3 46 -10 79 -21 91 -12 13 -17 44 -20 119 -2 86
-6 104 -22 115 -16 11 -19 26 -19 105 0 78 -3 95 -19 109 -13 11 -21 36 -26
86 -4 42 -12 73 -20 75 -8 4 -15 39 -19 103 -5 67 -12 101 -22 109 -10 7 -16
40 -21 113 -3 56 -9 102 -14 102 -16 0 -29 67 -29 151 0 69 -3 89 -14 89 -22
0 -26 23 -26 135 0 94 -2 105 -20 115 -18 10 -20 21 -20 106 0 77 -4 100 -19
122 -14 20 -21 53 -26 126 -4 69 -11 103 -21 110 -10 8 -16 43 -20 121 -5 84
-10 113 -23 123 -12 10 -16 36 -19 125 -3 90 -7 115 -20 125 -14 10 -18 35
-20 132 -3 91 -7 120 -17 120 -21 0 -25 24 -25 137 0 89 -3 108 -17 119 -16
11 -18 34 -21 183 -3 153 -5 172 -21 181 -16 8 -20 28 -26 127 -4 76 -12 123
-21 133 -9 11 -15 58 -20 140 -5 90 -11 130 -22 143 -12 13 -16 53 -20 175 -4
129 -8 159 -21 169 -13 9 -17 37 -20 144 -2 109 -6 136 -20 145 -13 11 -17 39
-19 185 -3 157 -6 175 -23 187 -17 12 -19 27 -19 185 0 157 -2 174 -19 189
-17 14 -20 37 -26 194 -5 110 -12 182 -18 186 -14 9 -26 124 -26 270 -1 97 -4
119 -18 134 -16 15 -18 42 -21 193 -3 151 -6 178 -20 189 -15 11 -17 38 -20
194 -3 157 -6 183 -20 194 -15 11 -17 38 -20 205 -3 166 -6 195 -20 205 -15
11 -18 44 -23 249 -6 201 -9 238 -23 248 -13 10 -17 43 -23 192 -4 131 -10
186 -21 202 -10 17 -15 71 -19 210 -4 108 -10 191 -16 194 -18 12 -26 100 -26
293 -1 168 -3 190 -18 202 -16 11 -18 35 -21 206 -2 168 -5 195 -20 206 -15
11 -17 40 -20 249 -3 215 -5 238 -21 250 -16 11 -19 34 -23 203 -4 158 -8 193
-22 209 -14 15 -17 55 -23 257 -5 201 -9 241 -22 251 -13 9 -16 42 -19 200 -3
156 -7 191 -20 206 -14 16 -17 55 -20 259 -4 219 -6 242 -23 259 -18 18 -19
37 -19 250 0 209 -2 233 -17 245 -16 11 -18 38 -21 272 -3 240 -4 260 -21 265
-16 4 -18 24 -24 207 -5 162 -9 205 -21 214 -12 9 -16 57 -22 261 -6 198 -10
255 -22 273 -12 19 -16 72 -20 265 -3 135 -9 245 -14 248 -21 13 -28 96 -28
348 0 240 -2 265 -17 277 -16 11 -18 38 -21 266 -2 225 -5 254 -20 266 -15 11
-17 40 -20 259 -3 220 -5 248 -22 272 -16 23 -19 55 -25 271 -4 158 -11 247
-18 252 -14 8 -26 173 -26 367 -1 131 -4 157 -18 173 -15 17 -17 54 -21 316
-4 259 -7 298 -21 309 -14 10 -16 46 -19 272 -3 208 -6 261 -16 261 -23 0 -26
36 -26 293 0 204 -2 247 -14 247 -8 0 -17 7 -20 16 -3 9 -6 121 -6 249 0 213
-2 237 -19 267 -18 30 -20 63 -27 328 -6 242 -10 297 -22 306 -12 8 -15 56
-19 255 -5 206 -8 247 -22 263 -14 15 -16 55 -19 269 -3 221 -6 252 -20 263
-15 11 -17 43 -20 273 -2 211 -6 261 -16 261 -8 0 -17 7 -20 16 -3 9 -6 124
-6 257 0 215 -2 242 -17 260 -16 17 -18 50 -21 319 -3 282 -4 302 -22 317 -18
15 -20 37 -26 266 -5 197 -10 254 -21 267 -12 13 -16 68 -20 270 -5 213 -8
256 -22 271 -14 16 -16 60 -20 308 -2 159 -7 289 -11 289 -22 0 -30 77 -30
291 0 216 -1 230 -20 249 -19 19 -20 33 -20 255 0 222 -1 236 -20 255 -15 15
-20 34 -21 73 -1 44 -2 48 -9 24 -5 -16 -13 -34 -18 -40 -5 -7 -12 -48 -16
-92 -4 -44 -13 -87 -21 -95 -8 -9 -17 -50 -20 -95 -5 -54 -13 -89 -26 -107
-13 -19 -19 -44 -19 -82 0 -30 -4 -58 -10 -61 -5 -3 -10 -17 -10 -30 0 -13 -4
-27 -10 -30 -5 -3 -10 -37 -10 -75 0 -38 -4 -72 -10 -75 -5 -3 -10 -17 -10
-30 0 -13 -4 -26 -9 -29 -5 -3 -10 -44 -13 -91 -3 -57 -9 -90 -20 -102 -10
-12 -17 -47 -21 -106 -3 -58 -10 -94 -20 -105 -9 -11 -18 -49 -22 -104 -5 -62
-11 -88 -20 -88 -9 0 -15 -28 -20 -96 -6 -74 -12 -101 -26 -115 -14 -14 -19
-33 -19 -70 0 -53 -15 -132 -31 -161 -5 -10 -9 -39 -9 -65 -1 -49 -20 -136
-33 -149 -4 -4 -7 -30 -7 -57 0 -48 -12 -101 -31 -139 -5 -10 -9 -41 -9 -70 0
-45 -7 -80 -28 -138 -3 -8 -11 -53 -18 -100 -6 -47 -19 -103 -27 -125 -9 -22
-16 -66 -17 -97 0 -43 -5 -63 -19 -77 -13 -13 -20 -38 -23 -89 -3 -41 -12 -82
-22 -96 -10 -15 -16 -46 -16 -77 0 -48 -9 -89 -31 -144 -4 -11 -9 -49 -11 -85
-2 -36 -11 -81 -20 -100 -9 -19 -19 -60 -23 -90 -3 -30 -12 -68 -20 -85 -14
-33 -35 -136 -35 -176 0 -14 -7 -34 -15 -45 -8 -10 -15 -37 -15 -60 0 -27 -6
-47 -19 -58 -13 -12 -20 -36 -24 -82 -2 -36 -11 -73 -20 -82 -8 -9 -20 -48
-26 -87 -7 -38 -16 -79 -21 -90 -5 -11 -11 -37 -15 -58 -3 -21 -13 -41 -21
-44 -8 -3 -14 -19 -14 -42 0 -20 -7 -47 -15 -61 -21 -37 -23 -42 -30 -82 -3
-21 -12 -44 -20 -52 -8 -8 -17 -33 -21 -56 -5 -28 -13 -44 -24 -47 -13 -3 -19
-18 -22 -55 -4 -33 -11 -54 -22 -60 -10 -6 -16 -22 -16 -48 0 -29 -5 -42 -20
-50 -13 -7 -20 -21 -20 -39 0 -16 -9 -40 -20 -54 -11 -14 -20 -33 -20 -42 0
-9 -9 -19 -19 -22 -13 -3 -22 -17 -26 -44 -4 -25 -13 -40 -26 -44 -10 -4 -19
-14 -19 -23 0 -10 -9 -23 -20 -30 -11 -7 -20 -21 -20 -32 0 -11 -9 -25 -20
-32 -11 -7 -20 -21 -20 -30 0 -10 -15 -33 -32 -51 -52 -54 -96 -107 -102 -123
-3 -8 -11 -14 -18 -14 -7 0 -19 -9 -26 -20 -7 -11 -16 -20 -22 -20 -5 0 -21
-11 -36 -25 -15 -14 -33 -25 -40 -25 -8 0 -14 -7 -14 -15 0 -9 -11 -20 -24
-24 -13 -5 -26 -17 -29 -25 -4 -9 -13 -16 -22 -16 -8 0 -24 -9 -35 -20 -11
-11 -29 -20 -40 -20 -11 0 -29 -9 -40 -20 -11 -11 -29 -20 -40 -20 -11 0 -23
-7 -26 -15 -3 -8 -25 -20 -47 -26 -23 -6 -46 -18 -52 -26 -6 -8 -33 -18 -61
-21 -27 -3 -54 -12 -60 -20 -7 -10 -33 -17 -72 -20 -43 -3 -66 -10 -78 -23
-15 -16 -32 -19 -116 -19 -85 0 -101 -3 -118 -20 -19 -19 -33 -20 -365 -20
-326 0 -345 1 -362 19 -15 16 -35 20 -121 23 -81 2 -106 7 -115 19 -8 10 -33
18 -68 21 -32 2 -64 11 -72 20 -9 8 -38 18 -66 22 -33 4 -51 11 -51 20 0 9
-16 17 -41 21 -23 4 -50 16 -60 26 -10 10 -29 19 -42 19 -12 0 -28 9 -35 20
-8 13 -23 20 -42 20 -19 0 -33 7 -40 20 -6 11 -20 20 -30 20 -11 0 -29 9 -39
19 -10 10 -28 22 -38 25 -11 4 -37 22 -59 42 -21 19 -49 40 -61 44 -13 5 -23
16 -23 25 0 10 -9 15 -26 15 -18 0 -38 13 -63 39 -20 21 -44 41 -53 44 -10 4
-18 13 -18 21 0 7 -10 16 -23 20 -21 5 -47 24 -97 70 -13 13 -15 -10 -12 -197
3 -180 6 -215 20 -231 15 -15 17 -50 20 -229 3 -184 5 -212 20 -223 15 -11 18
-44 22 -276 5 -214 9 -269 22 -293 13 -24 17 -80 23 -275 6 -199 10 -250 23
-270 13 -21 17 -68 20 -270 4 -204 7 -249 21 -269 13 -21 17 -65 19 -270 3
-207 6 -248 20 -270 14 -21 17 -62 20 -269 3 -220 5 -247 23 -275 17 -29 19
-52 19 -242 0 -192 2 -212 18 -226 17 -15 19 -40 25 -262 5 -207 9 -250 23
-272 15 -23 17 -77 22 -503 4 -380 8 -481 18 -497 18 -26 18 -144 0 -192 -10
-28 -16 -111 -20 -302 -5 -210 -9 -270 -21 -288 -12 -17 -15 -57 -15 -176 0
-208 -8 -278 -32 -285 -15 -4 -18 -15 -18 -71 0 -77 -5 -86 -46 -95 -20 -4
-34 -15 -37 -27 -3 -10 -13 -19 -22 -19 -10 0 -23 -7 -29 -15 -6 -9 -29 -18
-51 -22 -22 -3 -51 -14 -64 -25 -22 -17 -48 -18 -351 -18 -312 0 -328 1 -353
20 -14 11 -39 20 -56 20 -18 0 -40 9 -51 20 -11 11 -29 20 -40 20 -11 0 -20 7
-20 15 0 8 -16 22 -35 31 -19 9 -35 20 -35 25 0 5 -11 14 -24 19 -18 6 -27 20
-32 45 -4 25 -11 35 -25 35 -12 0 -19 7 -19 20 0 13 -7 20 -20 20 -13 0 -20 7
-20 20 0 10 -8 24 -19 29 -10 6 -22 26 -25 46 -4 19 -13 35 -20 35 -16 0 -26
31 -26 83 0 25 -5 37 -14 37 -17 0 -26 21 -26 60 0 19 -6 29 -20 33 -17 4 -20
14 -20 60 0 46 -3 55 -20 60 -17 4 -20 14 -20 61 0 45 -4 57 -20 66 -12 6 -20
21 -20 35 0 14 -9 33 -20 42 -14 12 -21 35 -26 84 -4 48 -12 73 -25 85 -11 9
-19 27 -19 39 0 12 -9 32 -20 45 -15 17 -20 37 -20 78 0 41 -5 58 -17 68 -15
10 -19 32 -21 120 -3 86 -7 111 -20 120 -13 9 -18 33 -20 92 -3 61 -9 85 -23
101 -15 16 -20 42 -25 133 -5 81 -10 116 -21 125 -11 8 -16 43 -20 130 -4 83
-11 125 -22 143 -13 19 -17 62 -19 229 -3 178 -6 207 -20 217 -15 11 -17 40
-20 224 -3 193 -5 213 -23 231 -18 18 -19 34 -19 232 0 195 -1 213 -18 224
-17 10 -19 34 -25 269 -6 217 -9 260 -23 275 -13 15 -17 54 -22 231 -4 179 -8
215 -21 225 -14 10 -16 47 -19 270 -3 227 -5 260 -20 271 -15 11 -17 41 -20
228 -3 197 -5 217 -23 235 -18 18 -19 35 -19 229 0 197 -1 211 -20 230 -19 19
-20 33 -20 273 0 234 -1 253 -18 264 -17 10 -20 33 -26 229 -5 175 -10 222
-22 235 -13 14 -17 58 -21 231 -5 177 -9 215 -22 224 -13 10 -16 43 -19 185
-4 146 -7 175 -21 185 -14 11 -16 46 -19 270 -3 241 -4 260 -22 277 -19 17
-20 32 -20 230 0 201 -1 213 -20 225 -19 12 -20 23 -20 231 0 210 -1 219 -20
224 -18 4 -20 14 -20 75 0 87 -9 132 -25 132 -8 0 -16 17 -20 39 -4 22 -13 42
-21 45 -7 3 -17 23 -20 46 -4 22 -12 40 -19 40 -15 0 -25 44 -25 106 0 31 -6
50 -21 65 -19 19 -20 29 -17 260 3 206 5 242 19 252 9 7 19 26 23 42 4 17 13
37 20 45 8 8 16 49 19 92 6 90 16 112 57 126 20 7 30 18 30 31 0 30 11 51 25
51 8 0 17 9 20 20 3 11 15 20 25 20 11 0 31 11 46 25 15 14 34 25 42 25 8 0
20 7 27 16 6 9 32 18 61 21 27 3 60 14 73 24 14 11 40 19 62 19 25 0 46 7 58
19 16 16 42 20 187 26 93 4 263 5 378 1 184 -5 213 -8 243 -26 19 -11 47 -20
64 -20 17 0 36 -8 46 -20 13 -15 30 -20 70 -20 41 0 57 -5 70 -20 10 -11 25
-20 34 -20 28 0 49 -11 49 -26 0 -8 5 -14 11 -14 6 0 24 -11 41 -25 16 -14 38
-25 48 -25 10 0 21 -9 25 -19 3 -11 12 -22 19 -24 8 -3 19 -22 26 -41 6 -20
16 -36 21 -36 24 0 59 -50 59 -85 0 -25 5 -38 18 -42 9 -4 22 -14 29 -24 7 -9
25 -19 41 -22 22 -4 31 -14 38 -39 8 -25 16 -34 38 -38 16 -3 34 -13 40 -24
17 -30 49 -62 69 -69 9 -3 17 -11 17 -17 0 -16 48 -79 92 -121 21 -20 38 -43
38 -51 0 -8 15 -30 33 -49 29 -31 54 -63 82 -108 6 -8 26 -38 46 -66 19 -27
38 -58 42 -67 3 -10 13 -18 22 -18 9 0 18 -12 22 -31 3 -17 14 -36 24 -42 11
-7 19 -19 19 -29 0 -20 37 -61 63 -71 9 -3 17 -15 17 -25 0 -10 8 -26 18 -36
11 -9 24 -34 31 -55 8 -28 18 -41 35 -45 16 -4 28 -17 35 -39 6 -18 20 -40 31
-50 12 -10 20 -29 20 -47 0 -20 5 -30 15 -30 9 0 19 -8 22 -17 4 -9 23 -32 43
-52 21 -20 41 -51 44 -69 4 -17 14 -32 21 -32 14 0 25 -22 25 -51 0 -12 12
-24 35 -33 26 -11 37 -23 41 -45 4 -17 15 -33 25 -36 12 -4 19 -16 19 -33 0
-19 11 -36 36 -55 19 -16 39 -40 44 -53 5 -13 16 -24 25 -24 9 0 17 -13 21
-38 5 -32 11 -40 37 -48 24 -7 34 -17 42 -41 5 -18 17 -35 26 -38 9 -3 19 -19
22 -35 4 -19 17 -35 36 -45 17 -8 38 -30 47 -48 9 -17 23 -36 30 -40 8 -4 14
-14 14 -20 0 -7 9 -20 21 -30 19 -17 21 -17 39 5 12 14 19 39 20 64 0 25 8 51
19 65 11 15 21 50 25 93 4 38 16 94 26 125 11 30 20 66 20 80 0 13 8 33 17 43
12 14 19 44 23 108 4 66 9 93 21 102 13 10 18 36 22 101 3 58 10 94 20 105 8
9 17 44 19 76 3 37 11 63 20 70 11 8 17 37 20 109 3 73 8 100 20 109 11 10 17
38 21 106 4 67 10 97 21 105 11 9 17 39 22 107 4 67 11 103 24 121 13 19 19
49 21 118 3 74 8 95 22 105 14 11 17 29 17 100 0 71 3 89 19 105 15 15 20 37
22 111 3 73 8 94 22 104 11 9 17 27 17 55 0 55 21 181 30 181 4 0 10 28 14 63
3 35 12 67 20 73 10 7 17 42 22 107 6 81 10 100 25 108 17 8 19 22 19 105 0
86 2 96 19 101 17 4 20 17 23 119 2 90 6 116 19 126 13 10 18 36 22 101 3 61
10 93 21 106 9 10 16 30 16 45 0 32 18 114 29 136 5 9 12 48 16 88 5 47 11 72
20 72 12 0 25 81 25 162 0 31 4 41 19 45 17 4 20 16 23 103 2 76 7 102 21 117
11 13 17 36 17 65 0 29 7 54 19 69 14 18 19 46 23 118 3 67 8 97 19 105 10 7
19 43 26 105 6 51 15 96 21 100 5 3 13 32 17 64 4 33 13 61 22 65 9 6 16 36
20 97 5 66 11 93 25 107 13 13 18 33 18 67 0 38 5 53 19 63 16 11 19 29 22
105 3 70 8 95 20 105 10 8 19 34 22 62 3 28 11 55 19 60 10 8 17 41 21 106 4
64 11 98 20 105 8 5 17 31 21 57 4 26 14 54 22 63 10 9 17 45 21 101 5 66 11
92 25 106 11 11 18 32 18 58 0 26 7 47 19 59 15 15 20 37 22 109 3 68 8 95 22
109 9 11 17 35 17 54 0 19 9 45 20 59 13 17 20 41 20 72 0 57 19 148 30 148 4
0 11 21 15 47 4 26 14 52 22 58 11 8 17 37 21 103 4 72 9 95 23 108 13 12 19
31 19 59 0 29 6 47 20 60 17 15 20 31 20 100 0 68 4 86 20 105 13 15 20 37 20
66 0 29 6 49 19 61 14 14 20 39 24 106 4 55 11 93 20 102 8 8 18 35 22 62 4
26 15 58 26 71 15 20 19 41 19 102 0 63 4 81 20 100 12 14 20 37 20 60 0 22 8
48 20 63 16 20 20 40 20 94 0 48 6 79 19 103 10 19 24 76 31 125 7 50 16 95
21 100 4 6 11 31 15 55 4 25 14 55 22 67 7 12 17 58 21 101 3 43 13 89 22 103
9 13 19 59 22 103 4 43 14 92 22 109 8 17 15 47 15 67 0 24 7 43 20 55 17 15
20 31 20 100 0 66 4 87 19 106 14 18 20 45 22 110 3 61 9 90 20 101 11 12 18
45 22 118 4 70 11 108 21 119 10 11 18 50 22 115 6 84 10 99 26 104 16 4 18
16 18 102 0 84 3 99 20 115 17 15 20 31 20 104 0 98 7 131 25 131 10 0 14 26
17 96 2 77 6 98 21 108 9 8 17 26 17 43 0 51 12 93 26 93 9 0 14 11 14 29 0
39 9 61 25 61 7 0 16 19 20 46 3 26 15 53 26 62 10 9 19 24 19 34 0 11 8 18
20 18 13 0 20 7 20 20 0 11 7 23 15 26 8 3 24 21 35 39 11 18 34 38 50 44 17
5 30 17 30 25 0 9 9 16 20 16 11 0 23 7 26 15 4 8 13 15 21 15 7 0 25 11 37
24 13 13 39 26 57 30 18 3 38 15 46 26 9 13 26 20 44 20 17 0 42 9 56 20 14
11 40 20 58 20 19 0 39 8 50 20 15 16 31 20 90 20 56 0 74 4 79 15 5 13 -89
15 -804 15 l-810 0 0 -1095z m-7213 -1827 c12 -12 36 -18 64 -18 76 0 117 -11
122 -31 4 -16 15 -19 66 -19 48 0 65 -4 81 -20 11 -11 29 -20 40 -20 13 0 20
-7 20 -20 0 -13 7 -20 20 -20 12 0 24 -10 29 -24 5 -13 17 -26 25 -29 13 -5
16 -24 16 -98 0 -81 -2 -91 -19 -96 -12 -3 -21 -17 -26 -40 -4 -23 -13 -37
-26 -40 -10 -3 -19 -14 -19 -24 0 -11 -7 -19 -15 -19 -9 0 -20 -11 -25 -25 -5
-14 -16 -25 -25 -25 -8 0 -15 -7 -15 -16 0 -9 -9 -18 -20 -21 -10 -3 -22 -14
-25 -24 -4 -10 -13 -19 -21 -19 -8 0 -14 -7 -14 -15 0 -8 -9 -15 -20 -15 -13
0 -22 -9 -26 -25 -5 -20 -14 -26 -45 -31 -29 -5 -39 -11 -39 -25 0 -12 -7 -19
-19 -19 -10 0 -21 -9 -24 -20 -4 -15 -14 -20 -37 -20 -23 0 -33 -5 -37 -20 -3
-11 -12 -20 -19 -20 -8 0 -19 -9 -26 -20 -8 -12 -24 -20 -40 -20 -17 0 -33 -8
-40 -20 -7 -11 -18 -20 -25 -20 -7 0 -29 -11 -49 -25 -20 -14 -45 -25 -55 -25
-11 0 -19 -4 -19 -8 0 -13 -47 -32 -79 -32 -20 0 -30 -6 -34 -20 -4 -15 -14
-20 -41 -20 -25 0 -38 -6 -46 -20 -7 -14 -21 -20 -43 -20 -21 0 -36 -7 -45
-20 -8 -14 -23 -20 -47 -20 -21 0 -43 -8 -54 -19 -10 -10 -31 -21 -46 -25 -16
-4 -40 -16 -53 -27 -14 -10 -37 -19 -52 -19 -19 0 -29 -6 -33 -20 -4 -15 -14
-20 -36 -20 -20 0 -34 -7 -41 -20 -6 -11 -20 -20 -30 -20 -11 0 -29 -9 -40
-20 -11 -11 -33 -20 -48 -20 -16 0 -37 -9 -47 -20 -10 -11 -30 -20 -45 -20
-15 0 -38 -8 -51 -19 -13 -10 -40 -21 -60 -25 -21 -4 -42 -13 -49 -20 -6 -8
-30 -18 -53 -21 -23 -4 -53 -16 -66 -26 -14 -11 -40 -19 -62 -19 -26 0 -46 -7
-59 -20 -13 -13 -33 -20 -60 -20 -28 0 -40 -4 -40 -14 0 -18 -22 -26 -75 -26
-34 0 -44 -4 -48 -19 -4 -16 -17 -21 -66 -27 -41 -4 -61 -11 -61 -20 0 -8 -18
-16 -50 -20 -27 -4 -50 -10 -50 -14 0 -12 -49 -30 -81 -30 -17 0 -42 -9 -56
-20 -16 -12 -41 -20 -64 -20 -26 0 -46 -7 -59 -20 -13 -13 -33 -20 -60 -20
-27 0 -47 -7 -60 -20 -15 -15 -33 -20 -79 -20 -50 0 -59 -3 -64 -19 -4 -16
-17 -21 -66 -27 -39 -4 -61 -11 -61 -19 0 -15 -31 -25 -77 -25 -22 0 -36 -6
-43 -20 -8 -15 -21 -20 -54 -20 -30 0 -48 -6 -61 -20 -12 -14 -31 -20 -58 -20
-26 0 -44 -6 -52 -17 -9 -13 -32 -18 -83 -21 -59 -3 -71 -7 -75 -23 -4 -16
-15 -19 -62 -19 -47 0 -58 -3 -62 -19 -4 -15 -18 -21 -61 -26 -31 -4 -61 -13
-67 -21 -5 -8 -35 -17 -65 -21 -30 -3 -60 -13 -66 -21 -5 -8 -32 -16 -60 -19
-28 -3 -54 -12 -62 -21 -8 -11 -34 -17 -77 -20 -51 -3 -68 -8 -76 -23 -7 -15
-21 -19 -58 -19 -35 0 -53 -5 -66 -20 -14 -16 -31 -20 -77 -20 -50 0 -58 -3
-58 -19 0 -15 -10 -20 -57 -26 -32 -4 -62 -13 -68 -21 -6 -9 -35 -18 -68 -21
-35 -4 -57 -10 -57 -18 0 -13 -43 -25 -91 -25 -15 0 -32 -7 -37 -16 -6 -11
-28 -18 -63 -22 -31 -3 -64 -13 -78 -23 -16 -13 -40 -19 -77 -19 -44 0 -54 -3
-59 -20 -5 -17 -15 -20 -71 -20 -57 0 -64 -2 -64 -19 0 -16 -10 -21 -57 -27
-33 -4 -63 -13 -69 -22 -7 -9 -33 -17 -68 -20 -36 -3 -56 -9 -56 -17 0 -15
-31 -25 -80 -25 -24 0 -39 -6 -48 -20 -10 -16 -23 -20 -67 -20 -40 0 -56 -4
-63 -17 -7 -11 -27 -18 -66 -21 -36 -3 -56 -9 -56 -17 0 -18 -24 -25 -85 -25
-42 0 -57 -4 -68 -20 -8 -11 -31 -22 -55 -26 -23 -4 -42 -10 -42 -14 0 -11
-58 -30 -92 -30 -17 0 -41 -9 -55 -20 -15 -11 -41 -20 -61 -20 -21 0 -40 -7
-47 -17 -8 -11 -32 -18 -74 -21 -47 -3 -65 -9 -74 -23 -9 -15 -24 -19 -64 -19
-42 0 -54 -4 -63 -20 -9 -17 -21 -20 -70 -20 -53 0 -60 -2 -60 -19 0 -16 -10
-21 -57 -27 -32 -4 -63 -13 -68 -21 -6 -8 -36 -17 -68 -20 -36 -4 -57 -10 -57
-18 0 -17 -23 -25 -74 -25 -29 0 -47 -6 -59 -20 -12 -15 -29 -20 -66 -20 -40
0 -50 -3 -54 -20 -4 -17 -14 -20 -61 -20 -43 0 -61 -5 -76 -20 -14 -14 -33
-20 -64 -20 -34 0 -45 -4 -49 -19 -3 -15 -18 -20 -66 -26 -33 -4 -61 -11 -61
-15 0 -11 -57 -30 -89 -30 -15 0 -31 -4 -36 -9 -6 -6 -35 -11 -65 -13 -47 -3
-55 -6 -58 -24 -3 -24 -27 -34 -79 -34 -20 0 -41 -8 -53 -20 -15 -15 -33 -20
-70 -20 -36 0 -50 -4 -50 -14 0 -18 -22 -26 -76 -26 -29 0 -50 -6 -62 -18 -11
-11 -39 -22 -63 -26 -24 -4 -51 -14 -61 -23 -9 -8 -39 -18 -65 -21 -26 -3 -53
-12 -59 -20 -7 -10 -34 -17 -73 -20 -47 -3 -64 -9 -72 -23 -7 -13 -21 -19 -47
-19 -25 0 -43 -7 -55 -20 -12 -15 -29 -20 -62 -20 -32 0 -51 -6 -65 -20 -14
-14 -33 -20 -63 -20 -30 0 -45 -5 -54 -19 -8 -12 -29 -21 -64 -25 -29 -4 -57
-14 -63 -22 -6 -8 -36 -17 -66 -21 -30 -3 -60 -13 -66 -21 -5 -8 -32 -16 -59
-19 -27 -4 -56 -14 -66 -24 -13 -13 -33 -19 -62 -19 -31 0 -45 -5 -55 -20 -10
-16 -23 -20 -67 -20 -40 0 -55 -4 -55 -14 0 -18 -22 -26 -75 -26 -34 0 -44 -4
-48 -19 -4 -15 -17 -21 -61 -26 -32 -4 -60 -14 -64 -21 -5 -8 -32 -17 -63 -21
-29 -3 -59 -13 -65 -21 -5 -8 -32 -17 -60 -20 -32 -3 -54 -12 -62 -24 -10 -14
-26 -18 -66 -18 -45 0 -54 -3 -59 -20 -4 -17 -14 -20 -60 -20 -47 0 -57 -3
-62 -20 -5 -16 -15 -20 -56 -20 -38 0 -52 -4 -61 -20 -10 -16 -24 -20 -70 -20
-44 0 -58 -3 -58 -15 0 -21 -33 -35 -83 -35 -36 0 -46 -4 -50 -20 -4 -17 -14
-20 -56 -20 -40 0 -52 -4 -61 -20 -8 -15 -21 -20 -50 -20 -27 0 -47 -7 -60
-20 -14 -14 -33 -20 -65 -20 -32 0 -45 -4 -45 -14 0 -18 -22 -26 -75 -26 -33
0 -44 -4 -48 -19 -3 -14 -18 -20 -61 -25 -32 -4 -59 -14 -64 -22 -5 -8 -31
-17 -63 -21 -29 -3 -59 -13 -65 -21 -5 -8 -32 -17 -60 -20 -32 -3 -54 -12 -62
-24 -10 -14 -26 -18 -66 -18 -45 0 -54 -3 -59 -20 -4 -17 -14 -20 -60 -20 -46
0 -55 -3 -60 -20 -4 -17 -14 -20 -66 -20 -54 0 -61 -2 -61 -19 0 -16 -10 -21
-55 -26 -31 -4 -59 -14 -63 -21 -5 -8 -26 -17 -48 -21 -21 -3 -44 -12 -51 -20
-7 -9 -34 -18 -60 -20 -26 -3 -54 -12 -60 -21 -8 -9 -34 -17 -68 -20 -35 -3
-55 -9 -55 -17 0 -17 -23 -25 -73 -25 -31 0 -45 -5 -55 -20 -10 -16 -23 -20
-66 -20 -44 0 -55 -3 -59 -19 -3 -14 -18 -21 -56 -26 -29 -4 -55 -13 -57 -20
-3 -7 -29 -17 -57 -20 -29 -4 -63 -16 -76 -26 -16 -13 -40 -19 -72 -19 -35 0
-49 -4 -49 -14 0 -18 -22 -26 -75 -26 -35 0 -45 -4 -50 -20 -5 -15 -15 -20
-42 -20 -20 0 -46 -9 -60 -20 -16 -13 -41 -20 -67 -20 -29 0 -45 -5 -53 -19
-7 -11 -29 -20 -59 -25 -26 -3 -55 -13 -64 -21 -9 -8 -39 -18 -66 -22 -27 -3
-54 -13 -60 -21 -5 -8 -32 -17 -60 -20 -27 -3 -54 -12 -60 -20 -6 -8 -33 -17
-63 -20 -37 -3 -55 -10 -62 -23 -7 -14 -21 -19 -53 -19 -30 0 -48 -6 -61 -20
-14 -15 -31 -20 -71 -20 -43 0 -54 -3 -59 -20 -5 -15 -19 -21 -65 -26 -54 -6
-59 -9 -65 -34 -3 -16 -12 -31 -19 -33 -10 -4 -15 -36 -18 -117 -3 -88 -7
-114 -20 -124 -12 -9 -16 -35 -19 -123 -3 -85 -8 -116 -21 -130 -12 -14 -17
-44 -20 -131 -3 -89 -7 -116 -19 -125 -12 -10 -17 -42 -23 -152 -5 -96 -12
-149 -23 -170 -10 -19 -18 -70 -22 -138 -5 -85 -10 -111 -23 -121 -13 -10 -17
-35 -20 -138 -2 -103 -6 -130 -20 -145 -15 -16 -18 -39 -18 -129 0 -89 -4
-115 -19 -140 -14 -24 -19 -56 -23 -152 -3 -96 -7 -125 -20 -134 -13 -11 -17
-41 -20 -163 -4 -115 -9 -157 -21 -175 -11 -18 -17 -63 -22 -150 -5 -88 -12
-132 -23 -150 -11 -18 -18 -61 -22 -152 -4 -97 -9 -130 -22 -145 -13 -14 -17
-44 -20 -144 -2 -101 -6 -131 -20 -145 -13 -16 -17 -47 -20 -181 -2 -137 -6
-164 -20 -175 -14 -11 -17 -39 -20 -174 -3 -124 -7 -166 -19 -185 -12 -17 -18
-62 -22 -159 -4 -99 -9 -137 -20 -145 -11 -8 -16 -52 -22 -184 -6 -137 -11
-182 -26 -215 -14 -32 -19 -65 -19 -152 0 -95 -3 -115 -19 -136 -17 -22 -20
-45 -23 -202 -3 -150 -6 -179 -19 -190 -14 -10 -17 -39 -21 -183 -3 -140 -6
-175 -20 -190 -13 -15 -17 -49 -20 -194 -3 -138 -7 -180 -19 -200 -12 -19 -17
-64 -22 -202 -4 -137 -9 -182 -20 -195 -11 -13 -17 -60 -22 -192 -6 -136 -11
-179 -23 -193 -12 -13 -16 -56 -21 -208 -5 -162 -8 -192 -23 -203 -14 -11 -17
-40 -20 -238 -3 -194 -5 -229 -20 -244 -14 -16 -17 -48 -20 -202 -2 -156 -5
-185 -19 -196 -14 -10 -17 -43 -21 -237 -3 -183 -7 -230 -19 -250 -13 -19 -17
-67 -21 -242 -5 -169 -9 -222 -21 -240 -11 -18 -16 -75 -22 -257 -5 -176 -11
-243 -22 -265 -11 -23 -16 -92 -21 -305 -6 -235 -10 -280 -24 -302 -14 -22
-17 -62 -20 -296 -3 -235 -5 -272 -20 -288 -14 -17 -17 -58 -20 -349 -3 -295
-5 -334 -20 -358 -16 -24 -18 -60 -19 -359 -1 -339 -7 -444 -26 -456 -7 -5
-12 -130 -14 -392 -4 -340 -6 -389 -21 -411 -15 -23 -17 -88 -24 -605 -6 -498
-9 -583 -22 -609 -14 -27 -16 -158 -16 -1225 -1 -1072 1 -1200 15 -1240 14
-38 18 -122 23 -525 6 -419 9 -482 23 -497 14 -16 17 -64 21 -351 4 -282 7
-335 20 -350 13 -14 16 -54 20 -210 4 -159 7 -195 21 -211 14 -15 17 -53 19
-250 3 -197 6 -234 20 -250 14 -15 18 -48 20 -194 3 -150 6 -180 21 -201 16
-22 19 -54 23 -204 4 -134 8 -181 18 -187 14 -9 28 -153 29 -304 1 -59 5 -84
17 -97 14 -15 17 -51 22 -201 3 -106 9 -186 15 -189 19 -13 26 -104 26 -341 1
-162 4 -237 12 -240 23 -8 28 -107 29 -543 0 -431 1 -453 20 -490 18 -35 20
-59 20 -238 0 -190 -1 -199 -20 -204 -14 -4 -20 -14 -20 -34 0 -16 -9 -38 -20
-49 -11 -11 -20 -27 -20 -35 0 -8 -9 -15 -20 -15 -14 0 -20 -7 -20 -21 0 -12
-8 -23 -19 -26 -11 -3 -21 -13 -24 -24 -3 -11 -14 -19 -25 -19 -11 0 -22 -9
-25 -20 -4 -15 -14 -20 -39 -20 -21 0 -40 -7 -51 -20 -14 -16 -29 -20 -85 -20
-55 0 -71 -4 -85 -20 -16 -19 -29 -20 -302 -20 -274 0 -285 1 -297 20 -11 17
-24 20 -85 20 -62 0 -74 3 -83 20 -8 14 -21 20 -46 20 -27 0 -37 5 -41 20 -3
11 -14 20 -24 20 -11 0 -28 9 -39 20 -12 12 -32 25 -45 30 -14 5 -25 16 -25
25 0 8 -9 15 -20 15 -13 0 -20 7 -20 19 0 10 -9 21 -20 24 -15 4 -20 14 -20
37 0 23 -5 33 -20 37 -13 3 -20 14 -20 28 0 14 -7 25 -20 28 -13 3 -20 14 -20
31 0 14 -8 33 -19 43 -10 10 -22 33 -26 50 -3 18 -13 37 -21 41 -10 5 -18 34
-22 79 -5 45 -14 77 -25 87 -12 12 -17 34 -17 68 0 36 -5 54 -17 63 -13 9 -18
32 -21 83 -3 59 -7 71 -23 75 -15 4 -19 14 -19 45 0 30 -4 41 -19 45 -14 3
-19 16 -23 60 -3 32 -11 62 -21 71 -9 9 -19 33 -23 54 -4 20 -15 48 -25 61
-11 13 -19 37 -19 52 0 18 -5 29 -14 29 -18 0 -26 31 -26 102 0 47 -4 59 -20
68 -13 7 -20 21 -20 40 0 17 -9 39 -20 50 -16 16 -20 33 -20 90 0 53 -3 70
-14 70 -17 0 -26 22 -26 64 0 20 -8 40 -19 50 -16 15 -21 38 -26 137 -5 77
-12 122 -20 129 -8 6 -17 30 -20 53 -4 23 -14 50 -23 59 -10 12 -17 46 -20 95
-3 52 -10 84 -21 97 -12 14 -17 45 -19 143 -3 107 -6 127 -23 144 -16 16 -19
34 -19 104 0 69 -3 88 -18 103 -15 15 -20 42 -26 147 -5 95 -11 134 -22 146
-12 13 -17 50 -21 153 -3 75 -9 136 -14 136 -14 0 -29 100 -29 196 0 73 -4
101 -17 121 -15 23 -19 56 -21 203 -3 146 -7 178 -20 194 -15 15 -17 52 -20
259 -3 220 -5 243 -23 265 -18 23 -19 43 -19 258 0 214 -2 236 -18 252 -17 17
-19 45 -25 277 -4 142 -7 319 -7 393 0 115 -3 138 -17 155 -17 18 -18 100 -21
1371 -4 1393 1 1747 22 1769 10 9 15 127 20 455 4 244 9 449 13 457 3 8 11 15
19 15 12 0 14 57 14 344 0 326 1 345 20 368 18 24 19 45 22 361 3 297 5 337
20 353 15 17 17 54 20 307 3 255 5 290 20 301 14 10 17 45 20 291 2 238 5 284
19 305 14 21 18 66 22 254 5 176 9 232 20 245 11 12 16 69 21 246 6 206 9 233
26 257 18 25 20 44 20 251 0 207 1 226 19 249 18 23 20 45 23 252 3 199 5 229
20 240 14 10 17 41 20 243 3 197 5 234 19 249 14 16 18 50 21 200 3 149 7 186
21 207 13 20 17 50 18 124 1 141 13 263 26 271 7 4 14 71 18 185 6 149 11 181
26 201 15 19 18 47 21 205 3 160 5 184 21 195 14 11 17 31 17 132 0 131 5 164
26 164 11 0 14 32 14 168 0 161 10 242 30 242 6 0 10 41 10 95 0 99 15 195 31
195 5 0 9 39 10 88 1 106 12 191 26 200 7 4 14 78 18 185 7 152 10 181 26 195
14 14 18 38 21 149 2 110 6 134 20 145 14 11 17 35 20 146 2 110 6 136 19 146
14 9 17 35 20 132 3 88 8 126 20 144 11 18 18 59 21 143 4 85 10 122 20 135
11 12 18 53 23 147 5 91 11 135 21 146 8 9 17 46 20 85 7 95 12 114 29 114 13
0 15 22 15 130 0 117 2 132 20 150 18 18 20 33 20 135 0 102 2 117 20 135 15
15 20 33 20 79 0 76 9 121 25 121 9 0 14 33 17 124 3 91 8 130 20 148 9 13 19
59 23 102 5 49 12 79 20 83 9 3 16 33 20 81 5 53 13 83 25 97 15 17 19 41 22
143 3 105 6 125 21 133 14 8 17 24 17 84 0 64 3 77 20 87 17 11 20 24 20 79 0
49 5 72 19 90 13 17 20 47 23 102 3 50 10 83 21 95 9 10 18 47 22 95 5 50 12
80 22 85 9 5 16 34 20 81 5 56 10 75 25 84 14 10 18 25 18 77 0 68 5 83 30 93
8 4 -12 4 -45 1 -33 -3 -63 -12 -68 -19 -4 -7 -26 -16 -49 -20 -23 -4 -55 -16
-72 -26 -20 -12 -50 -19 -83 -19 -39 0 -53 -4 -53 -14 0 -18 -22 -26 -73 -26
-31 0 -45 -5 -55 -20 -9 -15 -23 -20 -56 -20 -30 0 -48 -6 -61 -20 -12 -13
-31 -20 -57 -20 -22 0 -51 -8 -66 -19 -15 -11 -51 -22 -81 -26 -29 -3 -60 -12
-67 -20 -8 -8 -41 -17 -74 -21 -36 -4 -64 -12 -68 -21 -5 -8 -34 -18 -66 -22
-32 -4 -61 -13 -65 -20 -5 -7 -34 -15 -67 -18 -35 -4 -64 -12 -70 -21 -7 -9
-34 -17 -70 -20 -32 -2 -67 -11 -76 -19 -10 -9 -46 -17 -85 -20 -37 -3 -75
-12 -84 -19 -8 -7 -51 -19 -95 -25 -43 -6 -86 -17 -94 -24 -8 -7 -40 -16 -70
-20 -30 -3 -70 -13 -88 -21 -17 -8 -71 -18 -120 -21 -53 -3 -93 -11 -103 -20
-11 -9 -51 -16 -110 -20 -60 -4 -103 -12 -119 -22 -18 -12 -56 -17 -144 -20
-90 -2 -126 -7 -145 -20 -22 -14 -79 -16 -486 -19 -472 -3 -535 -1 -558 23
-10 9 -52 14 -144 17 -104 2 -135 6 -149 19 -12 10 -43 18 -81 21 -37 2 -70
11 -80 20 -10 8 -40 18 -67 21 -29 3 -53 11 -57 20 -6 9 -32 18 -70 22 -41 5
-66 13 -77 26 -9 10 -29 19 -44 19 -15 0 -35 8 -45 19 -10 10 -33 22 -51 26
-18 4 -36 13 -39 21 -3 8 -14 14 -24 14 -11 0 -22 7 -25 15 -3 8 -21 23 -40
34 -19 11 -39 32 -44 46 -5 14 -18 28 -27 31 -39 12 -48 23 -55 64 -4 24 -15
52 -25 62 -15 17 -19 43 -21 150 -4 141 1 178 22 178 8 0 16 16 20 43 4 23 10
47 14 52 12 17 90 75 101 75 5 0 13 9 16 20 4 12 15 20 29 20 13 0 31 9 41 20
10 11 25 20 34 20 9 0 21 8 28 19 6 10 27 21 46 25 19 4 40 13 47 21 6 8 33
17 58 21 26 3 53 13 60 22 8 11 33 17 77 20 36 2 65 8 65 13 0 22 94 29 383
29 268 0 311 2 333 16 18 12 64 19 167 26 78 5 160 15 182 22 22 8 72 17 110
21 39 4 75 11 80 15 16 12 101 30 141 30 23 0 41 6 49 17 8 11 32 18 73 21 43
3 66 10 78 23 13 14 31 19 71 19 40 0 58 5 73 20 15 15 33 20 74 20 42 0 58 4
68 19 9 12 32 20 71 25 34 5 60 13 63 21 3 8 29 17 62 21 31 4 62 13 67 21 6
8 36 17 68 20 36 4 57 10 57 18 0 15 31 25 79 25 20 0 39 7 46 17 8 10 32 18
69 21 39 3 56 9 56 18 0 10 15 14 58 14 50 0 59 3 67 22 8 17 22 25 60 31 28
4 55 15 62 23 6 9 35 18 67 21 35 4 56 10 56 18 0 15 32 25 83 25 25 0 37 5
37 14 0 17 22 26 60 26 16 0 33 7 38 16 6 11 28 18 62 22 33 3 60 12 71 23 13
13 34 19 67 19 35 0 50 5 59 19 7 11 29 21 54 25 23 4 47 13 53 21 6 8 34 18
61 21 28 4 56 13 62 22 8 9 35 17 68 20 35 3 55 9 55 17 0 17 23 25 70 25 29
0 42 5 50 20 8 15 21 20 50 20 27 0 47 7 60 20 13 13 33 20 60 20 26 0 47 7
59 19 11 11 40 23 65 26 24 4 47 13 50 20 3 8 26 17 53 20 26 4 53 14 60 22 6
8 31 17 54 20 24 4 52 14 63 25 12 11 35 18 58 18 25 0 45 7 58 20 14 14 33
20 65 20 30 0 47 5 53 16 6 11 27 18 60 22 38 3 51 9 55 23 4 14 19 19 66 25
39 4 61 11 61 19 0 13 30 25 68 25 12 0 22 4 22 8 0 14 48 32 85 32 23 0 35 5
35 14 0 16 30 26 80 26 24 0 39 6 48 20 9 16 23 20 61 20 41 0 51 4 56 20 5
16 15 20 46 20 25 0 46 7 57 18 11 11 39 22 63 26 24 4 51 14 60 22 10 9 37
18 61 21 24 4 48 13 54 21 5 8 32 17 60 20 32 3 54 12 62 24 9 11 25 18 48 18
21 0 43 8 56 20 14 13 36 20 60 20 25 0 45 7 58 20 14 14 33 20 63 20 30 0 45
5 54 19 7 12 29 21 59 26 27 4 53 13 59 21 5 8 34 17 63 21 37 4 56 11 63 24
8 15 21 19 63 19 45 0 54 3 59 20 4 16 14 20 46 20 28 0 41 4 41 14 0 18 22
26 75 26 34 0 44 4 48 20 4 17 14 20 62 20 47 0 58 3 62 19 4 14 18 21 60 26
31 4 56 12 59 20 3 7 24 17 47 21 23 3 53 15 66 25 14 11 40 19 62 19 26 0 46
7 59 20 13 13 33 20 60 20 27 0 47 7 60 20 14 14 33 20 65 20 32 0 45 4 45 14
0 18 22 26 75 26 34 0 44 4 48 19 4 16 17 21 66 27 38 4 61 11 61 19 0 13 43
25 90 25 19 0 29 6 33 20 4 17 14 20 66 20 54 0 61 2 61 20 0 16 7 20 38 20
25 0 43 7 55 20 12 15 29 20 66 20 40 0 50 3 54 20 4 17 14 20 60 20 46 0 55
3 60 19 4 16 17 21 66 27 39 4 61 11 61 19 0 8 18 16 43 20 23 4 54 16 69 26
16 12 43 19 72 19 35 0 49 5 58 20 10 15 24 20 54 20 28 0 47 6 59 20 13 14
31 20 59 20 29 0 47 6 59 20 12 14 29 20 61 20 35 0 46 4 51 19 4 14 19 20 62
26 32 4 62 13 68 21 5 8 34 17 63 21 31 3 52 11 52 18 0 15 32 25 80 25 24 0
39 6 48 20 10 16 23 20 66 20 45 0 54 3 59 20 4 17 14 20 60 20 47 0 57 3 62
20 5 16 15 20 46 20 25 0 46 7 58 19 10 10 40 22 67 26 27 4 57 14 66 22 10 9
41 18 70 21 34 3 60 11 71 23 11 12 32 19 53 19 21 0 43 8 56 20 15 13 36 20
63 20 29 0 47 6 60 20 14 16 31 20 75 20 49 0 58 3 63 20 4 16 14 20 50 20 31
0 47 5 51 15 4 11 20 15 56 15 42 0 55 4 73 25 14 16 37 28 62 32 22 3 48 12
57 21 9 8 39 17 65 20 26 3 53 12 59 20 7 9 33 17 67 20 38 3 62 11 73 23 12
13 31 19 61 19 30 0 49 6 63 20 13 13 33 20 60 20 24 0 42 6 48 15 5 9 35 20
73 27 35 6 69 17 75 25 7 8 29 17 50 20 22 3 47 12 56 21 9 8 39 17 65 20 26
3 59 13 72 23 13 11 39 19 57 19 21 0 42 8 54 20 14 14 33 20 65 20 32 0 51 6
65 20 14 14 33 20 65 20 31 0 51 6 64 19 10 10 40 22 67 26 27 4 57 14 67 23
10 9 42 18 77 20 47 3 59 8 63 23 4 15 15 19 56 19 40 0 52 4 61 20 9 16 21
20 69 20 50 0 59 3 64 20 4 16 14 20 46 20 28 0 48 7 61 20 15 15 33 20 69 20
38 0 53 5 63 19 9 13 32 21 71 26 33 4 61 13 65 22 5 8 31 16 65 20 35 4 57
10 57 18 0 14 44 25 96 25 22 0 34 5 34 14 0 18 22 26 76 26 31 0 44 4 44 14
0 19 22 26 80 26 39 0 49 4 53 20 4 17 14 20 60 20 46 0 57 3 62 19 4 14 19
20 58 24 28 4 70 16 92 27 21 11 54 20 72 20 18 0 33 4 33 8 0 16 51 32 101
32 42 0 52 3 56 20 5 17 14 20 59 20 43 0 55 4 64 20 9 17 21 20 70 20 53 0
60 2 60 20 0 17 7 20 48 20 36 0 54 5 66 19 12 13 38 22 74 27 32 4 61 13 67
20 5 8 33 17 60 20 28 4 55 13 62 21 7 9 37 17 72 20 41 4 66 12 77 24 11 13
31 19 56 19 25 0 50 8 65 20 16 12 41 20 64 20 25 0 41 6 47 16 6 11 28 18 63
22 32 2 62 12 74 22 12 11 44 21 83 26 39 4 62 11 62 19 0 12 51 25 103 25 16
0 27 5 27 14 0 13 41 26 86 26 13 0 33 9 44 20 15 15 33 20 70 20 36 0 50 4
50 14 0 18 22 26 74 26 29 0 47 6 59 20 14 16 29 20 81 20 55 0 66 3 71 20 5
15 19 21 66 26 37 4 59 11 59 19 0 12 51 25 103 25 16 0 27 5 27 14 0 14 42
26 91 26 16 0 32 7 37 17 7 11 28 18 67 21 38 3 64 11 76 23 15 15 34 19 84
19 49 0 65 3 65 14 0 19 22 26 85 26 42 0 57 4 67 19 9 12 32 22 63 26 28 4
57 14 66 22 9 7 40 16 70 20 30 3 59 12 66 21 8 10 37 17 88 20 51 3 75 9 75
17 0 17 23 25 71 25 26 0 46 7 59 20 16 16 33 20 86 20 51 0 72 5 91 20 18 14
41 20 78 20 41 0 56 4 66 20 11 15 30 21 84 26 39 4 77 12 85 20 8 7 44 16 80
20 36 3 72 13 82 21 9 9 48 17 95 20 48 3 85 11 95 21 12 10 49 16 115 20 61
3 106 10 120 20 13 8 59 16 108 20 47 2 85 8 85 13 0 13 71 29 134 29 41 0 65
5 78 17 19 17 144 32 290 33 53 0 81 4 91 14 21 22 64 23 598 22 449 -1 488
-2 506 -18z m-22460 -1880 c15 -14 37 -18 99 -18 60 0 90 -5 119 -20 22 -11
59 -20 85 -20 58 0 90 -9 90 -25 0 -8 21 -14 56 -18 39 -4 62 -12 76 -26 11
-12 31 -21 48 -21 23 0 30 -5 30 -20 0 -14 7 -20 24 -20 35 0 56 -10 56 -26 0
-8 9 -14 21 -14 12 0 23 -8 26 -20 4 -13 14 -20 30 -20 13 0 34 -11 47 -25 13
-14 28 -25 35 -25 6 0 11 -7 11 -15 0 -8 9 -19 20 -25 11 -6 20 -17 20 -25 0
-7 9 -16 19 -20 12 -3 23 -19 27 -38 4 -18 15 -38 25 -45 12 -8 19 -25 19 -44
0 -18 7 -36 18 -44 15 -11 17 -30 17 -134 0 -104 -2 -123 -17 -134 -17 -13
-18 -177 -18 -3221 0 -3044 1 -3208 18 -3221 16 -11 17 -46 20 -443 2 -237 7
-431 12 -431 23 0 30 -77 30 -358 0 -267 2 -297 17 -315 16 -17 19 -56 28
-316 7 -202 14 -303 23 -318 8 -15 14 -102 18 -280 6 -212 9 -261 22 -276 13
-14 16 -58 20 -240 4 -189 7 -224 21 -234 13 -9 17 -40 19 -190 2 -107 8 -180
14 -184 18 -12 27 -91 28 -248 0 -135 2 -155 18 -167 15 -11 17 -34 20 -185 3
-153 5 -175 21 -186 16 -11 20 -35 26 -180 5 -121 11 -172 21 -184 10 -11 16
-61 20 -180 5 -119 11 -170 22 -187 11 -17 16 -66 20 -190 3 -95 9 -170 15
-173 17 -12 26 -98 26 -266 1 -149 3 -165 21 -183 18 -18 20 -33 20 -190 0
-157 2 -172 20 -190 18 -18 20 -33 20 -195 0 -145 3 -180 16 -200 18 -27 33
-174 33 -329 1 -67 5 -94 17 -107 13 -15 17 -58 21 -256 5 -202 9 -240 22
-250 14 -10 16 -48 16 -311 0 -262 -2 -302 -16 -318 -9 -11 -19 -46 -22 -78
-4 -37 -11 -63 -21 -68 -8 -5 -17 -31 -21 -63 -6 -45 -11 -55 -26 -55 -14 0
-19 -7 -19 -25 0 -14 -9 -34 -20 -45 -11 -11 -20 -24 -20 -29 0 -6 -8 -16 -18
-23 -10 -7 -21 -21 -25 -30 -3 -10 -13 -18 -22 -18 -8 0 -15 -7 -15 -15 0 -9
-11 -20 -25 -25 -14 -5 -25 -16 -25 -25 0 -8 -7 -15 -15 -15 -9 0 -19 -8 -22
-17 -9 -24 -23 -33 -55 -33 -21 0 -28 -5 -28 -20 0 -12 -7 -20 -18 -20 -9 0
-23 -9 -30 -20 -7 -11 -23 -20 -37 -20 -14 0 -29 -8 -35 -20 -8 -15 -21 -20
-50 -20 -33 0 -40 -4 -40 -19 0 -16 -10 -20 -61 -26 -35 -4 -63 -13 -66 -20
-2 -8 -22 -16 -43 -20 -21 -4 -56 -15 -77 -26 -30 -15 -58 -19 -145 -19 -91 0
-108 -3 -117 -17 -9 -16 -29 -18 -209 -18 -172 0 -202 2 -218 17 -15 13 -44
17 -135 20 -90 2 -121 7 -135 19 -11 9 -41 20 -67 23 -27 4 -50 13 -53 21 -3
8 -30 16 -64 20 -45 5 -59 11 -63 26 -4 15 -14 19 -46 19 -34 0 -41 3 -41 20
0 16 -7 20 -36 20 -27 0 -37 5 -41 19 -3 13 -17 21 -44 25 -25 4 -39 12 -39
21 0 9 -9 15 -21 15 -12 0 -23 8 -26 20 -3 13 -17 22 -40 26 -23 4 -37 14 -40
25 -3 11 -14 19 -24 19 -12 0 -19 7 -19 19 0 10 -9 21 -20 24 -11 3 -20 12
-20 20 0 9 -9 18 -19 22 -12 3 -23 19 -27 38 -4 18 -15 38 -25 45 -11 7 -19
22 -19 32 0 10 -3 20 -7 22 -17 7 -73 88 -73 105 0 10 -18 37 -40 61 -22 23
-40 48 -40 55 0 7 -9 18 -20 25 -11 7 -20 21 -20 32 0 11 -9 29 -20 40 -11 11
-23 34 -27 51 -3 16 -14 34 -24 40 -11 5 -19 20 -19 32 0 12 -14 35 -30 51
-17 15 -37 41 -45 56 -8 15 -21 30 -30 33 -9 4 -15 19 -15 36 0 20 -7 34 -20
41 -10 6 -22 26 -26 45 -3 19 -12 35 -19 35 -8 0 -17 10 -21 23 -4 12 -24 39
-45 59 -24 23 -39 47 -39 62 0 15 -7 26 -20 29 -15 4 -20 14 -20 36 0 21 -6
34 -17 38 -22 8 -62 54 -63 70 0 7 -9 17 -19 23 -11 5 -22 24 -26 41 -4 17
-16 40 -26 50 -10 10 -19 30 -19 44 0 15 -6 25 -14 25 -8 0 -17 9 -21 19 -3
10 -15 21 -25 24 -11 3 -20 12 -20 21 0 9 -9 25 -20 36 -11 11 -20 28 -20 38
0 11 -11 32 -25 48 -14 16 -25 36 -25 44 0 9 -18 35 -39 58 -22 23 -42 51 -46
61 -3 11 -12 22 -20 25 -8 3 -15 18 -15 33 0 17 -8 33 -20 41 -11 7 -20 19
-20 28 0 8 -18 39 -40 69 -22 30 -40 59 -40 64 0 5 -9 13 -20 16 -14 4 -22 19
-26 46 -4 21 -12 39 -19 39 -15 0 -25 22 -25 55 0 14 -7 25 -20 28 -16 4 -20
14 -20 46 0 34 -3 41 -20 41 -11 0 -20 6 -20 14 0 7 -18 33 -40 57 -21 24 -42
55 -45 70 -4 15 -12 30 -20 33 -8 3 -17 21 -20 40 -4 19 -13 37 -21 40 -8 3
-15 13 -15 23 -1 10 -5 -19 -9 -65 -4 -50 -13 -89 -22 -100 -12 -13 -17 -50
-20 -145 -4 -99 -9 -131 -21 -145 -12 -13 -17 -37 -17 -83 0 -78 -16 -180 -29
-189 -6 -3 -14 -68 -19 -144 -7 -113 -12 -140 -25 -148 -14 -7 -17 -25 -17
-92 0 -67 -4 -88 -19 -108 -16 -19 -20 -44 -23 -137 -2 -93 -6 -115 -20 -125
-11 -8 -18 -26 -18 -48 0 -20 -8 -46 -19 -59 -10 -13 -22 -39 -26 -57 -4 -18
-15 -38 -26 -45 -10 -6 -19 -21 -19 -32 0 -11 -7 -31 -16 -43 -8 -12 -19 -54
-23 -93 -5 -49 -13 -76 -24 -84 -9 -7 -17 -22 -17 -34 0 -27 -34 -61 -60 -61
-14 0 -20 -7 -20 -24 0 -28 -56 -96 -80 -96 -9 0 -25 -9 -35 -20 -10 -11 -24
-20 -31 -20 -7 0 -22 -10 -33 -21 -14 -15 -36 -23 -72 -27 -32 -3 -59 -12 -70
-23 -13 -13 -33 -19 -60 -19 -28 0 -46 -6 -55 -17 -11 -17 -44 -18 -390 -21
-365 -3 -434 2 -434 28 0 4 -21 10 -47 13 -26 3 -52 11 -57 19 -6 9 -35 17
-65 20 -33 3 -57 11 -62 21 -5 8 -25 18 -45 22 -24 4 -38 13 -41 26 -3 10 -14
19 -23 19 -10 0 -21 8 -24 18 -3 10 -20 22 -38 27 -22 7 -35 19 -42 41 -6 17
-19 39 -28 48 -15 15 -18 36 -18 132 0 91 -3 114 -14 114 -8 0 -17 7 -20 16
-3 9 -6 156 -6 329 0 295 -1 313 -18 317 -16 5 -20 20 -25 113 -4 60 -7 235
-7 391 0 259 -1 284 -17 293 -17 9 -18 61 -18 868 0 771 2 861 16 883 13 20
17 67 21 247 5 207 7 224 27 249 19 24 21 39 21 171 0 136 1 145 20 150 19 5
20 14 20 165 0 151 1 160 20 165 18 5 20 14 20 113 0 115 4 140 25 140 10 0
14 45 17 209 2 176 6 212 19 227 11 12 19 47 24 97 6 67 9 77 26 77 16 0 19 7
19 46 0 37 4 47 20 51 14 4 20 14 20 33 0 31 13 45 53 55 15 4 27 12 27 18 0
13 101 107 115 107 6 0 18 9 28 20 9 11 28 20 42 20 13 0 29 8 34 19 6 11 27
21 53 25 23 4 50 14 59 22 9 8 40 17 70 21 78 9 99 32 99 110 0 70 6 93 26 93
11 0 14 17 14 70 0 55 4 74 18 88 11 11 22 34 26 52 3 19 13 41 21 50 9 10 18
46 22 83 5 53 10 68 24 72 14 5 19 16 19 42 0 26 5 36 20 40 13 3 20 14 20 29
0 13 9 33 20 44 11 11 20 27 20 36 0 9 9 18 20 21 10 3 22 14 25 24 4 10 15
19 26 19 10 0 19 7 19 15 0 9 8 19 18 22 9 4 30 17 45 30 16 13 35 23 42 23 8
0 18 7 23 16 6 11 28 18 63 22 31 3 64 13 78 23 20 16 42 19 126 19 94 0 103
2 108 20 5 19 14 20 210 20 113 0 212 -3 221 -6 9 -3 16 -12 16 -20 0 -11 22
-14 105 -14 89 0 108 -3 124 -19 11 -11 38 -20 71 -23 33 -3 58 -12 65 -22 7
-9 19 -16 27 -16 8 0 26 -11 40 -24 14 -12 33 -26 42 -29 9 -4 19 -14 23 -24
8 -20 35 -48 61 -62 11 -6 22 -25 26 -42 3 -18 14 -38 24 -45 16 -11 17 -51
20 -521 3 -544 -1 -653 -24 -653 -20 0 -21 -195 0 -203 7 -3 17 -18 21 -34 3
-15 15 -36 26 -46 10 -10 19 -31 19 -46 0 -20 6 -30 20 -34 11 -3 20 -12 20
-21 0 -9 18 -34 40 -56 22 -22 40 -49 40 -60 0 -10 8 -24 19 -29 10 -6 22 -26
25 -46 4 -21 13 -35 21 -35 9 0 17 -15 21 -40 4 -23 12 -40 20 -40 7 0 16 -10
20 -22 4 -13 24 -46 45 -74 22 -28 39 -54 39 -58 0 -4 9 -19 20 -33 11 -14 20
-33 20 -42 0 -9 9 -22 20 -28 10 -7 22 -28 26 -48 3 -19 12 -35 19 -35 8 0 16
-17 20 -40 4 -22 11 -40 16 -40 5 0 14 -11 19 -25 5 -14 14 -25 19 -25 5 0 16
-17 24 -39 9 -21 23 -41 31 -44 10 -4 16 -18 16 -36 0 -20 6 -32 19 -36 10 -3
21 -18 24 -34 3 -16 13 -35 21 -44 8 -8 18 -28 22 -43 4 -16 15 -37 25 -47 11
-10 19 -29 19 -42 0 -14 8 -29 20 -35 19 -10 20 -8 20 95 0 92 -3 108 -20 125
-19 19 -20 33 -20 214 0 175 -2 198 -19 228 -17 28 -21 61 -26 233 -5 134 -12
215 -22 245 -10 30 -17 107 -20 230 -3 102 -9 187 -14 190 -18 12 -29 147 -29
353 0 178 -2 217 -14 217 -23 0 -26 34 -26 309 0 240 -2 265 -17 277 -16 11
-18 42 -21 356 -2 311 -4 344 -20 356 -16 12 -17 49 -20 440 -2 417 -3 428
-24 472 l-22 45 -2 1570 c0 864 2 1829 5 2145 5 519 8 578 23 610 16 32 18 95
20 766 3 673 4 733 20 751 15 16 17 51 20 290 3 241 5 273 21 290 9 11 17 31
17 45 0 37 10 58 26 58 9 0 14 11 14 29 0 39 18 88 36 95 8 3 14 12 14 20 0 8
10 26 23 40 12 13 31 36 42 50 44 58 81 93 105 101 14 4 31 16 38 26 7 11 24
19 37 19 14 0 30 9 37 20 7 11 20 20 29 20 9 0 19 9 22 20 4 15 14 20 41 20
24 0 38 6 45 19 8 13 27 21 63 26 30 4 58 15 64 24 9 12 33 17 93 19 45 2 81
7 81 11 0 18 56 31 129 31 59 0 80 4 84 14 8 21 35 24 223 22 148 -1 175 -3
191 -18z m22313 -2728 l0 -1780 -1840 0 -1840 0 0 1780 0 1780 1840 0 1840 0
0 -1780z m-2198 -2067 c8 -9 49 -13 128 -14 125 0 208 -10 219 -26 3 -6 44
-13 91 -17 47 -4 95 -14 107 -22 13 -8 50 -17 83 -21 39 -4 65 -12 76 -24 11
-12 31 -19 54 -19 22 0 48 -8 63 -20 14 -11 38 -20 55 -20 16 0 37 -8 46 -19
9 -10 35 -21 57 -25 22 -3 42 -13 45 -20 3 -8 21 -17 40 -21 19 -3 37 -12 40
-20 3 -7 21 -16 40 -19 18 -4 38 -16 44 -26 6 -11 18 -20 28 -20 9 0 22 -8 29
-19 6 -10 25 -21 42 -24 18 -4 31 -13 31 -22 0 -9 9 -15 21 -15 12 0 23 -8 26
-20 3 -11 13 -20 23 -20 9 0 25 -10 36 -21 10 -12 29 -25 42 -30 12 -5 22 -15
22 -24 0 -8 8 -15 19 -15 10 0 21 -9 24 -20 3 -11 12 -20 20 -20 9 0 19 -9 22
-20 3 -11 13 -20 21 -20 8 0 18 -8 21 -17 4 -9 24 -33 45 -54 21 -20 38 -45
38 -55 0 -10 18 -35 40 -55 22 -21 40 -42 40 -48 0 -6 9 -15 20 -21 10 -6 22
-26 26 -45 4 -21 13 -37 25 -40 14 -5 19 -16 19 -46 0 -32 3 -39 20 -39 16 0
20 -7 20 -38 0 -24 7 -43 19 -54 10 -8 21 -36 25 -62 4 -26 13 -50 21 -52 7
-3 17 -24 20 -47 4 -23 16 -54 26 -69 11 -14 19 -41 19 -58 0 -19 7 -38 16
-45 10 -7 19 -32 22 -66 3 -33 11 -59 21 -66 13 -9 17 -35 19 -127 2 -64 7
-116 12 -116 26 0 30 -84 30 -700 0 -622 0 -638 -20 -663 -18 -23 -20 -40 -20
-186 0 -145 -2 -162 -19 -178 -17 -16 -20 -35 -23 -170 -2 -127 -6 -154 -20
-165 -13 -10 -17 -36 -20 -127 -4 -87 -8 -116 -20 -125 -12 -8 -17 -40 -23
-124 -5 -82 -11 -114 -22 -120 -10 -6 -16 -36 -20 -108 -4 -75 -10 -104 -23
-119 -14 -16 -19 -41 -22 -118 -2 -77 -7 -101 -19 -111 -13 -9 -18 -33 -20
-105 -3 -74 -8 -95 -21 -105 -13 -10 -18 -27 -18 -65 0 -39 -5 -55 -20 -68
-15 -13 -20 -30 -21 -73 -1 -77 -14 -161 -26 -168 -6 -4 -13 -33 -17 -64 -5
-35 -13 -61 -22 -66 -11 -6 -17 -34 -21 -107 -5 -84 -9 -98 -25 -103 -15 -4
-18 -14 -18 -64 0 -51 -3 -61 -20 -65 -18 -5 -20 -14 -20 -82 0 -89 -7 -121
-26 -121 -10 0 -14 -15 -14 -58 0 -46 -4 -63 -20 -77 -13 -12 -20 -31 -20 -56
0 -46 -8 -69 -25 -69 -9 0 -15 -27 -20 -86 -5 -64 -12 -91 -26 -105 -14 -14
-19 -33 -19 -77 0 -46 -4 -60 -20 -70 -16 -9 -20 -23 -20 -61 0 -41 -4 -51
-20 -56 -17 -5 -20 -15 -20 -62 0 -46 -3 -56 -20 -60 -17 -5 -20 -14 -20 -59
0 -43 -4 -56 -20 -66 -13 -8 -20 -24 -20 -43 -1 -43 -17 -107 -29 -115 -6 -3
-14 -34 -17 -68 -5 -41 -13 -67 -25 -78 -13 -12 -19 -31 -19 -63 0 -35 -5 -49
-20 -59 -16 -10 -20 -23 -20 -63 0 -42 -3 -52 -20 -56 -17 -5 -20 -14 -20 -60
0 -46 -3 -56 -20 -60 -17 -4 -20 -14 -20 -54 0 -34 -6 -55 -18 -67 -11 -11
-22 -41 -25 -68 -4 -27 -13 -53 -20 -59 -8 -5 -17 -28 -20 -49 -4 -22 -13 -44
-21 -48 -8 -5 -17 -31 -21 -63 -6 -45 -11 -55 -26 -55 -16 0 -19 -8 -19 -59 0
-50 -3 -61 -19 -66 -14 -4 -20 -18 -23 -57 -4 -33 -11 -54 -22 -60 -11 -6 -16
-22 -16 -49 0 -32 -4 -42 -20 -46 -16 -4 -20 -14 -20 -48 0 -52 -8 -75 -25
-75 -7 0 -15 -20 -18 -52 -4 -29 -13 -58 -21 -63 -8 -6 -17 -28 -21 -48 -5
-27 -12 -37 -26 -37 -17 0 -19 -8 -19 -65 0 -58 -2 -65 -20 -65 -17 0 -20 -7
-20 -50 0 -38 -5 -54 -20 -67 -13 -11 -20 -30 -20 -51 0 -25 -5 -35 -20 -39
-17 -4 -20 -14 -20 -54 0 -35 -6 -55 -19 -68 -10 -10 -21 -38 -25 -63 -4 -25
-15 -51 -26 -61 -13 -11 -20 -29 -20 -51 0 -26 -5 -36 -20 -41 -16 -5 -20 -15
-20 -56 0 -38 -4 -52 -20 -61 -14 -9 -20 -24 -20 -46 0 -25 -5 -35 -20 -39
-14 -4 -20 -14 -20 -33 0 -15 -9 -39 -20 -53 -11 -14 -20 -29 -20 -35 0 -5 -8
-20 -19 -33 -10 -13 -21 -41 -25 -61 -4 -22 -13 -38 -20 -38 -10 0 -16 -19
-21 -60 -5 -46 -11 -61 -26 -65 -14 -5 -19 -16 -19 -46 0 -32 -3 -39 -20 -39
-18 0 -20 -7 -20 -55 0 -44 -4 -57 -20 -67 -13 -9 -20 -24 -20 -45 0 -22 -6
-36 -20 -43 -14 -7 -20 -21 -20 -43 0 -46 -10 -77 -25 -77 -8 0 -16 -18 -20
-42 -4 -24 -16 -49 -26 -56 -13 -9 -19 -25 -19 -53 0 -27 -5 -42 -16 -46 -8
-3 -20 -16 -25 -29 -4 -13 -15 -24 -24 -24 -11 0 -15 -11 -15 -41 0 -32 -4
-42 -20 -46 -16 -4 -20 -14 -20 -48 0 -53 -8 -75 -26 -75 -9 0 -14 -11 -14
-29 0 -38 -9 -61 -25 -61 -7 0 -15 -20 -18 -52 -5 -37 -12 -57 -27 -67 -13 -9
-20 -24 -20 -47 0 -24 -5 -34 -20 -39 -15 -5 -20 -15 -20 -40 0 -19 -6 -38
-14 -42 -8 -4 -21 -25 -29 -45 -9 -21 -21 -38 -26 -38 -6 0 -11 -16 -11 -35 0
-24 -6 -39 -20 -47 -13 -9 -20 -24 -20 -45 0 -22 -6 -36 -20 -43 -11 -6 -20
-21 -20 -34 0 -43 -12 -86 -25 -86 -13 0 -25 -30 -25 -66 0 -11 -9 -29 -20
-39 -11 -10 -20 -31 -20 -47 0 -15 -8 -36 -18 -46 -10 -10 -21 -26 -25 -35 -3
-9 -13 -17 -22 -17 -11 0 -15 -11 -15 -41 0 -32 -4 -42 -20 -46 -14 -4 -20
-14 -20 -35 0 -17 -8 -42 -19 -56 -10 -15 -21 -44 -25 -65 -4 -21 -16 -47 -27
-58 -10 -10 -19 -31 -19 -47 0 -16 -8 -32 -20 -40 -12 -7 -20 -23 -20 -41 0
-15 -8 -39 -18 -52 -10 -13 -21 -32 -25 -41 -3 -10 -13 -18 -22 -18 -10 0 -15
-10 -15 -29 0 -39 -9 -61 -26 -61 -9 0 -14 -12 -14 -36 0 -27 -5 -37 -19 -41
-14 -4 -20 -18 -25 -63 -5 -46 -11 -60 -26 -65 -15 -5 -20 -15 -20 -42 0 -26
-5 -36 -20 -40 -13 -3 -20 -14 -20 -29 0 -13 -9 -33 -20 -44 -11 -11 -20 -27
-20 -36 0 -9 -8 -18 -19 -21 -14 -4 -20 -17 -23 -54 -3 -28 -12 -55 -20 -62
-9 -7 -19 -29 -22 -49 -4 -22 -13 -38 -21 -38 -8 0 -16 -16 -20 -41 -5 -29
-13 -43 -26 -46 -14 -4 -19 -14 -19 -38 0 -25 -5 -35 -20 -40 -11 -3 -20 -14
-20 -23 0 -10 -9 -23 -20 -30 -14 -8 -20 -23 -20 -46 0 -44 -9 -66 -26 -66 -9
0 -14 -11 -14 -30 0 -16 -8 -38 -18 -48 -10 -10 -24 -32 -31 -49 -7 -17 -19
-34 -27 -37 -8 -3 -14 -13 -14 -22 0 -9 -9 -27 -20 -41 -11 -14 -20 -36 -20
-49 0 -14 -9 -32 -20 -41 -11 -10 -20 -27 -20 -38 0 -12 -9 -31 -20 -43 -11
-12 -20 -29 -20 -38 0 -9 -9 -18 -19 -21 -12 -3 -21 -17 -26 -39 -3 -19 -12
-37 -20 -40 -8 -3 -17 -21 -21 -40 -3 -19 -14 -40 -23 -47 -10 -6 -20 -20 -24
-29 -3 -10 -13 -18 -22 -18 -11 0 -15 -10 -15 -36 0 -27 -5 -37 -20 -41 -11
-3 -20 -13 -20 -23 0 -23 -38 -70 -56 -70 -8 0 -20 -13 -27 -29 -13 -32 -130
-141 -150 -141 -7 0 -17 -15 -22 -32 -8 -25 -18 -35 -42 -42 -25 -8 -33 -17
-38 -43 -3 -19 -14 -37 -23 -40 -9 -4 -23 -14 -30 -24 -6 -10 -26 -20 -42 -24
-17 -4 -30 -13 -30 -20 0 -14 -21 -25 -50 -25 -11 0 -24 -9 -30 -20 -6 -11
-18 -20 -27 -20 -9 0 -21 -7 -28 -16 -6 -9 -32 -18 -61 -22 -32 -3 -54 -12
-62 -24 -10 -13 -26 -18 -63 -18 -34 0 -59 -6 -77 -20 -22 -16 -51 -20 -167
-26 -111 -6 -142 -10 -152 -23 -17 -23 -159 -22 -193 2 -20 14 -49 17 -175 17
-179 0 -212 8 -243 55 -20 32 -27 35 -68 35 -37 0 -47 4 -51 20 -4 15 -14 20
-39 20 -23 0 -37 6 -44 20 -6 11 -19 20 -30 20 -10 0 -32 11 -48 25 -17 14
-35 25 -41 25 -6 0 -11 9 -11 20 0 11 -7 20 -15 20 -18 0 -65 43 -65 59 0 6
-10 20 -22 31 -22 20 -23 30 -26 175 -3 144 -2 155 17 174 20 20 21 32 21 189
0 146 3 173 19 205 11 21 22 56 26 78 4 21 11 39 15 39 12 0 30 67 30 111 0
21 8 47 20 62 12 15 20 40 20 62 0 28 5 38 20 42 16 4 20 14 20 50 0 36 4 46
20 50 16 4 20 14 20 49 0 31 6 50 20 64 11 11 20 33 20 49 0 18 8 35 18 43 12
8 21 32 25 63 4 28 13 55 21 60 8 6 17 28 21 48 4 20 13 37 20 37 14 0 25 31
25 73 0 15 9 35 20 44 13 11 20 30 20 51 0 25 5 35 20 39 15 4 20 14 20 38 0
19 8 39 19 49 11 10 23 31 26 46 3 16 13 31 21 34 8 3 14 16 14 30 0 35 10 56
26 56 9 0 14 12 14 34 0 18 9 44 19 58 11 13 22 45 26 71 6 37 11 47 26 47 16
0 19 8 19 44 0 54 8 76 26 76 10 0 14 13 14 41 0 32 4 42 20 46 15 4 20 14 20
42 0 51 10 81 26 81 9 0 14 11 14 30 0 17 9 39 20 50 11 11 24 39 29 62 6 23
17 48 25 54 9 6 16 19 16 29 0 9 9 19 20 22 16 4 20 14 20 43 0 30 5 40 20 45
16 5 20 15 20 46 0 32 3 39 20 39 18 0 20 7 20 55 0 44 4 57 20 67 14 9 20 24
20 46 0 25 5 35 19 39 14 4 20 18 25 63 5 46 11 59 26 63 15 4 20 14 20 42 0
28 5 38 20 42 14 4 20 14 20 34 0 18 8 34 20 41 11 7 20 21 20 30 0 10 9 22
20 28 16 9 20 21 20 61 0 42 3 52 20 56 16 4 20 14 20 44 0 26 7 46 20 59 11
11 20 29 20 39 0 30 11 51 26 51 9 0 15 20 20 61 5 43 12 64 25 72 13 8 19 23
19 45 0 25 5 35 20 39 14 4 20 14 20 34 0 16 9 38 20 49 11 11 20 26 20 34 0
7 9 16 20 19 16 4 20 14 20 51 0 34 5 51 20 63 46 39 30 43 -179 43 -252 0
-322 7 -329 32 -4 15 -15 18 -73 18 -57 0 -72 4 -86 20 -11 12 -30 20 -50 20
-22 0 -36 6 -43 20 -6 11 -20 20 -30 20 -11 0 -29 9 -39 19 -10 10 -28 22 -40
26 -12 3 -21 13 -21 21 0 7 -15 20 -33 28 -21 8 -38 25 -46 45 -8 17 -20 31
-28 31 -7 0 -17 8 -20 18 -4 9 -15 23 -25 30 -10 7 -18 26 -18 41 0 20 -6 30
-20 34 -11 3 -20 12 -20 21 0 9 -9 25 -20 36 -11 11 -20 31 -20 44 0 15 -7 26
-20 29 -15 4 -20 14 -20 36 0 20 -7 34 -20 41 -12 7 -22 25 -26 50 -4 25 -12
40 -21 40 -7 0 -17 8 -20 18 -4 9 -15 28 -25 41 -10 13 -18 31 -18 40 0 9 -9
22 -20 29 -11 7 -20 18 -20 25 -1 15 -30 48 -55 63 -12 6 -21 24 -23 41 -2 21
-10 33 -23 36 -13 3 -19 14 -19 31 0 14 -9 34 -20 43 -11 10 -23 32 -26 50 -4
19 -15 38 -25 44 -11 5 -19 15 -19 22 0 7 -13 27 -30 45 -38 42 -50 65 -50 94
0 13 -9 29 -20 36 -15 9 -20 23 -20 52 0 28 -4 40 -14 40 -16 0 -26 21 -26 55
0 12 -7 28 -15 35 -8 7 -20 31 -26 54 -6 22 -17 48 -24 56 -7 8 -17 33 -21 55
-4 22 -13 45 -21 50 -7 6 -16 28 -20 50 -3 22 -13 48 -22 58 -10 13 -17 44
-20 94 -2 57 -8 80 -22 94 -11 11 -19 30 -19 43 0 14 -9 40 -19 58 -12 20 -22
63 -26 113 -4 44 -13 87 -20 95 -7 8 -17 33 -20 55 -4 22 -15 48 -23 58 -11
12 -17 46 -20 104 -3 55 -10 92 -18 101 -8 7 -17 25 -20 40 -3 15 -15 45 -25
68 -13 27 -19 63 -19 109 0 48 -5 74 -16 86 -9 10 -18 37 -21 61 -4 23 -15 56
-25 73 -12 19 -18 49 -18 85 0 36 -7 68 -20 92 -12 23 -22 67 -26 120 -4 47
-13 90 -20 99 -8 8 -17 38 -21 65 -3 27 -12 54 -20 59 -9 7 -16 42 -20 100 -4
65 -11 93 -22 102 -11 8 -17 33 -19 90 -3 52 -9 84 -20 95 -10 12 -18 50 -23
109 -5 60 -12 96 -23 108 -9 10 -16 31 -16 47 0 16 -9 45 -19 65 -11 20 -23
69 -27 110 -4 41 -14 85 -22 97 -9 14 -17 56 -20 105 -3 60 -10 89 -23 106
-11 13 -19 39 -19 59 0 21 -7 40 -17 47 -13 10 -18 32 -21 92 -3 43 -8 80 -12
83 -11 8 -30 70 -30 98 0 14 -8 34 -17 44 -12 13 -20 46 -24 100 -4 46 -13 84
-19 88 -7 4 -17 48 -23 96 -5 49 -18 107 -28 130 -11 22 -19 51 -19 64 0 13
-7 32 -16 42 -12 12 -19 43 -22 95 -3 52 -10 84 -21 96 -10 13 -17 44 -20 95
-2 56 -9 84 -22 101 -11 13 -19 39 -19 58 0 20 -9 46 -20 60 -11 14 -20 34
-20 44 0 18 -11 19 -200 19 -189 0 -201 1 -212 20 -10 15 -24 20 -55 20 -51 0
-73 8 -73 26 0 8 -9 14 -20 14 -10 0 -24 8 -29 19 -6 10 -24 21 -40 24 -17 4
-49 25 -71 47 -25 25 -49 40 -65 40 -16 0 -25 6 -25 15 0 9 -11 20 -25 25 -14
5 -25 16 -25 24 0 11 -22 15 -106 18 -82 2 -108 7 -117 19 -7 10 -33 18 -65
21 -29 3 -60 12 -70 21 -10 10 -40 20 -66 23 -30 5 -52 14 -59 25 -7 11 -22
19 -35 19 -12 0 -30 9 -39 20 -10 11 -23 20 -30 20 -7 0 -18 9 -25 20 -7 11
-18 20 -25 20 -13 0 -73 58 -73 70 0 4 -15 11 -32 16 -26 8 -35 17 -43 47 -6
21 -17 42 -25 47 -12 7 -16 37 -18 126 -4 133 2 184 23 184 9 0 15 10 15 26 0
29 16 64 30 64 15 0 60 49 60 65 0 8 9 15 20 15 12 0 20 7 20 16 0 9 16 22 38
31 21 8 42 24 47 36 6 12 27 30 48 40 20 10 37 25 37 33 0 9 12 14 36 14 27 0
37 5 41 19 3 11 17 21 34 25 16 3 46 21 66 41 20 19 42 35 49 35 7 0 21 8 31
19 10 10 29 22 41 26 13 4 33 16 43 26 10 10 29 19 42 19 12 0 28 9 35 20 8
13 23 20 43 20 22 0 32 5 36 20 3 11 13 20 23 20 9 0 28 8 41 18 13 10 35 24
49 31 57 29 89 48 105 64 9 9 30 17 46 17 20 0 29 5 29 16 0 9 9 18 20 21 18
5 20 14 20 99 0 83 2 94 20 104 14 8 20 21 20 46 0 27 5 37 20 41 11 3 20 14
20 25 0 33 18 55 50 61 16 4 30 12 30 19 0 14 54 60 83 71 9 3 17 11 17 16 0
6 17 13 38 17 20 4 45 15 55 25 10 11 29 19 43 19 14 0 38 8 52 19 15 10 47
22 72 26 24 4 56 15 69 24 21 14 68 16 308 19 156 2 283 7 283 12 0 4 15 13
33 21 17 7 36 19 40 26 4 7 24 13 43 13 24 0 37 5 41 18 9 23 23 32 56 32 16
0 27 5 27 14 0 16 21 26 53 26 12 0 28 9 35 20 7 12 23 20 40 20 15 0 35 9 45
20 9 11 34 23 56 26 22 4 48 15 57 25 9 11 27 19 39 19 12 0 30 9 40 20 11 12
31 20 49 20 20 0 36 7 44 20 8 14 23 20 46 20 25 0 35 5 39 20 4 15 14 20 36
20 20 0 34 7 41 19 6 12 26 22 50 26 23 4 40 12 40 20 0 8 17 16 39 20 22 4
42 13 45 20 3 8 21 17 41 21 20 3 39 13 42 20 3 7 21 16 41 20 21 4 48 15 61
25 13 11 32 19 42 19 11 0 28 9 39 20 11 11 33 20 48 20 16 0 37 8 46 19 9 10
34 21 55 25 21 3 44 12 50 20 7 8 30 17 52 21 22 4 46 13 54 22 8 8 31 17 51
20 21 3 45 14 56 25 10 10 32 18 51 18 21 0 41 8 52 20 13 14 31 20 60 20 29
0 47 6 60 20 10 11 29 20 43 20 13 0 39 9 56 19 17 10 50 22 74 26 24 4 46 13
49 21 2 7 26 16 51 20 26 4 58 15 71 25 13 11 36 19 52 19 16 0 32 7 37 16 6
11 28 18 62 22 33 3 60 12 71 23 13 13 33 19 64 19 28 0 47 5 52 15 5 8 33 19
63 25 29 6 61 16 69 24 9 7 38 17 64 20 27 4 51 14 53 21 4 8 29 17 62 21 32
3 65 13 74 21 9 8 44 18 76 22 35 4 67 14 76 24 12 11 34 17 67 17 36 0 54 5
69 20 15 15 33 20 72 20 32 0 58 6 68 15 11 10 54 20 110 26 51 6 102 17 114
24 12 8 65 17 126 21 73 4 110 11 123 22 15 13 52 17 200 20 100 2 191 7 202
12 11 5 27 11 35 14 8 3 108 4 222 3 150 -1 210 -5 220 -14z m-8198 -5273 c21
-4 42 -13 45 -18 3 -5 48 -12 99 -15 72 -4 98 -10 118 -26 15 -12 37 -21 50
-21 13 0 28 -9 34 -20 7 -13 21 -20 40 -20 19 0 34 -7 42 -20 10 -16 24 -20
68 -20 80 0 100 -8 107 -41 3 -15 14 -36 24 -45 17 -15 19 -32 19 -131 0 -106
-1 -113 -20 -113 -14 0 -20 -7 -20 -24 0 -35 -10 -56 -26 -56 -8 0 -14 -6 -14
-14 0 -8 -8 -21 -18 -28 -10 -7 -21 -21 -25 -30 -3 -10 -13 -18 -22 -18 -8 0
-15 -7 -15 -15 0 -8 -9 -19 -20 -25 -11 -6 -22 -21 -26 -34 -3 -13 -17 -33
-30 -45 -13 -11 -24 -25 -24 -31 0 -5 -8 -10 -18 -10 -9 0 -23 -9 -30 -20 -7
-12 -24 -25 -37 -30 -14 -5 -25 -16 -25 -24 0 -19 -47 -56 -71 -56 -12 0 -19
-7 -19 -20 0 -11 -7 -20 -15 -20 -9 0 -34 -18 -57 -39 -22 -22 -51 -42 -64
-45 -14 -4 -33 -15 -44 -26 -11 -11 -31 -20 -45 -20 -15 0 -25 -6 -25 -14 0
-16 -21 -26 -55 -26 -15 0 -26 -7 -30 -20 -5 -15 -15 -20 -40 -20 -23 0 -38
-6 -44 -19 -6 -10 -26 -22 -45 -25 -19 -4 -39 -13 -46 -21 -6 -7 -26 -17 -43
-20 -18 -4 -40 -14 -49 -22 -9 -9 -38 -18 -63 -20 -27 -4 -45 -11 -45 -18 0
-13 -30 -25 -66 -25 -11 0 -29 -9 -39 -20 -13 -14 -31 -20 -60 -20 -34 0 -44
-4 -48 -20 -4 -16 -14 -20 -45 -20 -23 0 -49 -8 -63 -19 -13 -10 -42 -21 -63
-25 -21 -4 -45 -13 -52 -20 -7 -7 -37 -16 -66 -20 -29 -4 -64 -14 -77 -23 -14
-9 -57 -17 -105 -20 -57 -4 -88 -11 -105 -24 -18 -15 -41 -19 -103 -19 -58 0
-86 -5 -105 -17 -24 -16 -58 -18 -324 -18 -269 0 -299 2 -316 18 -15 13 -37
17 -100 17 -63 0 -85 4 -104 19 -14 10 -47 20 -78 23 -34 4 -57 11 -63 21 -4
9 -29 19 -55 23 -25 4 -54 15 -64 25 -11 11 -28 19 -39 19 -11 0 -28 8 -38 18
-9 9 -27 22 -40 27 -54 24 -192 156 -192 184 0 11 -18 39 -40 61 l-40 40 0
125 0 125 40 40 c22 22 40 49 40 60 0 27 140 161 193 185 12 6 30 18 39 28 10
9 28 17 41 17 12 0 28 9 35 20 7 12 23 20 41 20 15 0 39 9 53 19 13 11 42 23
64 27 21 4 44 14 50 22 5 8 32 16 59 19 27 4 56 14 66 24 11 11 33 19 50 19
17 0 42 9 56 20 19 14 41 20 79 20 41 0 54 4 54 15 0 14 11 18 82 30 20 3 38
12 41 20 3 7 26 17 51 20 25 4 46 11 46 15 0 11 48 30 75 30 14 0 34 9 45 20
13 13 33 20 58 20 25 0 43 7 55 20 11 13 29 20 53 20 23 0 41 6 49 17 8 10 32
18 71 21 32 3 70 13 84 22 15 11 53 20 94 24 38 3 73 11 77 18 10 16 116 27
265 27 93 1 124 4 134 15 6 8 33 17 58 19 102 8 679 6 716 -3z"/>
<path d="M41194 26813 c-8 -13 -29 -18 -85 -21 -49 -3 -77 -9 -84 -19 -6 -8
-38 -18 -70 -22 -33 -5 -73 -15 -90 -24 -16 -9 -45 -17 -64 -17 -18 0 -48 -8
-65 -19 -17 -10 -49 -22 -71 -26 -21 -3 -44 -13 -50 -21 -5 -8 -32 -17 -60
-20 -27 -4 -58 -13 -67 -22 -9 -8 -39 -17 -65 -20 -26 -3 -53 -12 -59 -20 -6
-8 -33 -17 -62 -20 -33 -3 -52 -9 -52 -17 0 -15 -22 -25 -56 -25 -13 0 -33 -9
-44 -20 -12 -12 -33 -20 -55 -20 -24 0 -39 -6 -47 -20 -9 -13 -24 -20 -45 -20
-19 0 -40 -8 -50 -19 -10 -11 -35 -22 -55 -26 -21 -4 -38 -11 -38 -15 0 -9
-46 -30 -66 -30 -9 0 -27 -9 -41 -20 -14 -11 -41 -20 -59 -20 -22 0 -34 -5
-34 -14 0 -16 -21 -26 -56 -26 -13 0 -33 -9 -44 -20 -11 -11 -29 -20 -40 -20
-11 0 -29 -9 -40 -20 -11 -11 -31 -20 -44 -20 -13 0 -34 -8 -47 -19 -13 -10
-39 -22 -58 -26 -18 -4 -42 -16 -52 -26 -10 -10 -30 -19 -44 -19 -14 0 -34 -9
-45 -20 -11 -11 -30 -20 -41 -20 -12 0 -27 -7 -33 -16 -7 -8 -31 -18 -55 -21
-26 -4 -47 -13 -54 -24 -7 -11 -22 -19 -34 -19 -13 0 -32 -9 -43 -20 -11 -11
-26 -20 -33 -20 -8 0 -24 -9 -37 -20 -13 -11 -35 -23 -49 -27 -14 -3 -33 -11
-41 -18 -28 -23 -83 -45 -111 -45 -21 0 -29 -6 -38 -30 -8 -26 -15 -30 -45
-30 -24 0 -36 -5 -36 -14 0 -16 -21 -26 -55 -26 -14 0 -26 -7 -30 -19 -4 -12
-19 -21 -44 -25 -21 -3 -41 -12 -44 -20 -3 -8 -22 -18 -41 -21 -19 -4 -37 -13
-40 -21 -3 -8 -12 -14 -21 -14 -25 0 -21 -86 5 -100 13 -7 20 -21 20 -42 0
-17 7 -39 16 -49 9 -10 20 -40 25 -66 5 -26 16 -51 24 -56 9 -4 15 -22 15 -40
0 -19 8 -39 19 -48 11 -10 21 -37 25 -67 3 -28 11 -52 17 -54 12 -4 28 -75 29
-127 0 -19 7 -39 16 -46 9 -6 18 -32 21 -61 3 -27 12 -52 19 -57 7 -4 16 -24
20 -45 4 -20 13 -46 21 -58 7 -11 17 -55 23 -98 5 -42 16 -87 25 -99 8 -12 15
-31 15 -42 0 -11 6 -30 14 -41 16 -22 36 -119 36 -173 0 -19 7 -42 15 -51 9
-10 19 -35 22 -56 4 -22 13 -44 20 -49 9 -6 17 -37 20 -73 3 -34 9 -62 13 -62
10 0 30 -81 30 -121 0 -18 7 -40 16 -50 11 -12 20 -51 26 -111 6 -51 16 -100
23 -108 7 -8 15 -34 19 -58 4 -24 14 -54 23 -68 9 -14 18 -55 21 -97 3 -43 10
-75 17 -80 8 -4 16 -26 20 -49 4 -24 14 -53 22 -65 9 -14 17 -58 21 -108 2
-47 8 -85 12 -85 11 0 30 -57 30 -88 0 -14 7 -33 16 -43 11 -12 18 -48 23
-106 5 -54 14 -98 24 -114 9 -13 20 -58 23 -99 4 -41 13 -80 20 -87 6 -7 15
-36 19 -65 4 -29 13 -63 21 -75 8 -13 17 -51 21 -85 3 -35 13 -73 20 -85 8
-12 17 -59 20 -105 4 -52 11 -89 20 -100 8 -9 17 -36 20 -60 3 -24 12 -50 20
-60 9 -9 17 -48 20 -95 4 -54 11 -84 23 -98 13 -14 20 -46 25 -112 4 -57 12
-97 20 -103 8 -6 17 -37 21 -68 4 -31 13 -67 21 -79 8 -12 17 -48 20 -80 3
-32 13 -68 20 -80 8 -12 17 -59 20 -105 4 -52 11 -89 20 -100 8 -9 17 -36 20
-60 4 -24 12 -53 20 -64 7 -12 17 -55 22 -96 5 -41 15 -86 24 -99 9 -14 18
-61 22 -111 5 -53 13 -92 21 -98 7 -6 16 -37 20 -68 3 -31 13 -64 21 -74 9 -9
17 -48 20 -95 4 -49 11 -85 21 -96 12 -13 17 -50 20 -157 3 -77 8 -140 12
-140 18 0 30 -70 30 -175 0 -203 12 -385 25 -385 7 0 15 19 18 45 2 25 12 54
20 63 9 10 19 37 23 60 5 32 11 42 25 42 16 0 19 8 19 59 0 51 3 61 20 66 16
5 20 15 20 46 0 26 7 46 20 59 12 12 20 33 20 54 0 23 7 40 18 48 12 8 21 30
24 62 4 29 13 55 22 61 9 7 16 23 16 37 0 14 11 46 25 72 14 26 25 58 25 72 0
17 7 28 20 31 17 5 20 14 20 60 0 46 3 56 20 60 17 4 20 14 20 55 0 41 3 51
20 55 16 4 20 14 20 47 0 29 6 47 20 59 14 12 20 29 20 61 0 32 5 49 19 58 12
9 20 32 25 71 5 38 12 57 21 57 9 0 16 19 20 55 5 39 13 59 26 66 14 7 19 21
19 49 0 27 7 47 20 60 13 13 20 33 20 60 0 26 7 47 18 58 14 14 21 41 25 97 4
47 12 82 21 89 7 6 16 36 20 65 3 32 12 58 20 63 7 4 17 32 21 63 3 31 13 58
21 63 8 5 17 31 21 61 4 36 12 56 24 64 14 9 19 24 19 54 0 30 6 49 20 63 12
12 20 33 20 54 0 18 8 44 19 57 13 17 20 45 22 101 3 54 9 82 22 95 9 11 17
35 17 55 0 39 18 98 30 98 4 0 10 20 13 45 2 25 12 54 20 63 8 9 20 51 26 92
6 46 16 79 25 86 12 8 16 29 16 71 0 45 5 67 20 86 12 15 20 40 20 65 0 23 8
49 19 63 12 16 20 48 24 96 3 39 12 82 20 95 8 13 17 50 20 83 4 35 12 64 21
70 9 7 17 39 21 93 5 57 13 90 26 106 14 17 19 41 19 81 0 48 3 58 20 62 18 5
20 14 20 99 0 79 3 95 19 106 14 10 19 29 23 82 3 49 9 72 21 81 13 10 17 29
17 91 0 92 7 124 26 124 11 0 14 20 14 88 0 66 5 97 19 125 12 25 21 71 26
137 5 71 11 103 22 108 10 6 16 38 20 117 5 84 10 112 24 126 15 15 18 40 21
169 3 131 5 153 21 164 15 12 17 32 17 170 0 145 1 157 20 168 20 13 20 24 20
479 0 419 -2 469 -17 500 -11 21 -19 67 -21 122 -3 48 -8 87 -13 87 -12 0 -29
68 -29 118 0 30 -4 42 -14 42 -15 0 -20 10 -31 70 -4 19 -15 42 -24 51 -9 9
-27 31 -41 48 -20 25 -32 31 -65 31 -27 0 -44 -6 -51 -17z"/>
<path d="M53756 37765 c5 -11 24 -15 80 -15 58 0 77 -4 91 -19 10 -10 38 -21
63 -24 24 -3 49 -13 56 -21 6 -9 23 -16 37 -16 35 0 57 -10 57 -25 0 -7 17
-16 37 -20 21 -4 43 -15 51 -26 7 -10 22 -19 32 -19 11 0 25 -9 32 -20 7 -11
21 -20 31 -20 11 0 21 -9 24 -20 3 -11 14 -20 25 -20 11 0 36 -19 56 -41 20
-23 47 -45 60 -50 12 -5 22 -15 22 -23 0 -7 8 -16 19 -19 12 -3 21 -17 25 -41
4 -22 13 -36 22 -36 8 0 18 -8 21 -17 4 -9 15 -25 25 -35 11 -11 18 -33 18
-58 0 -29 5 -42 20 -50 15 -8 20 -21 20 -49 0 -30 4 -40 20 -44 17 -4 20 -14
20 -60 0 -45 3 -56 18 -60 18 -4 32 -44 32 -91 0 -12 9 -29 20 -39 13 -11 20
-29 20 -52 0 -22 8 -44 20 -57 13 -14 20 -36 20 -61 0 -24 8 -49 20 -64 15
-19 20 -41 20 -84 0 -43 4 -60 16 -67 13 -7 18 -30 22 -105 4 -82 7 -96 23
-100 17 -5 19 -16 19 -110 0 -89 3 -106 19 -121 12 -11 20 -36 24 -75 2 -32
12 -69 20 -82 9 -15 18 -64 22 -129 5 -70 12 -108 21 -115 10 -7 16 -44 20
-120 5 -82 10 -113 22 -122 12 -10 17 -40 20 -130 4 -92 8 -120 20 -129 13
-10 17 -41 20 -168 3 -117 8 -156 17 -156 20 0 25 -25 25 -136 0 -87 3 -109
19 -132 15 -21 20 -53 26 -147 4 -82 11 -125 20 -135 11 -12 16 -59 21 -181 5
-135 9 -166 23 -177 13 -11 17 -38 19 -160 2 -112 7 -155 20 -182 12 -26 18
-70 20 -170 3 -108 7 -139 20 -154 14 -15 18 -48 20 -200 3 -152 6 -183 19
-193 14 -11 17 -46 22 -216 5 -165 9 -208 23 -228 13 -20 18 -65 24 -220 5
-149 10 -196 21 -204 11 -8 16 -53 20 -200 5 -149 9 -195 22 -214 13 -20 16
-67 19 -263 3 -184 7 -238 17 -238 21 0 25 -36 25 -255 0 -193 2 -212 20 -240
18 -27 20 -47 20 -224 0 -173 2 -195 18 -207 15 -11 18 -39 22 -248 5 -206 8
-237 22 -248 15 -11 18 -44 24 -253 6 -189 10 -245 22 -263 12 -19 16 -69 20
-238 3 -118 8 -214 12 -214 14 0 22 -83 27 -285 3 -169 7 -203 21 -218 15 -17
17 -50 20 -245 4 -204 6 -229 23 -251 17 -22 19 -43 19 -254 0 -207 2 -231 18
-243 15 -11 18 -41 24 -269 5 -217 9 -258 22 -268 13 -10 17 -51 22 -262 5
-201 10 -253 22 -267 12 -14 16 -65 20 -270 4 -215 7 -256 21 -272 14 -15 17
-56 20 -284 3 -233 5 -268 20 -278 14 -11 16 -47 19 -295 3 -261 5 -285 23
-307 18 -23 19 -43 19 -265 0 -217 2 -241 18 -253 15 -11 18 -41 24 -267 5
-201 10 -261 22 -279 11 -18 16 -77 21 -278 5 -192 11 -266 23 -300 12 -35 16
-103 19 -305 4 -228 7 -262 21 -273 15 -11 17 -44 20 -270 3 -228 5 -258 20
-270 15 -11 17 -41 20 -255 2 -150 7 -244 13 -248 21 -13 29 -91 29 -309 0
-199 2 -230 18 -262 16 -30 20 -72 26 -274 4 -170 11 -251 21 -282 11 -30 17
-109 22 -270 3 -125 10 -230 15 -233 17 -11 28 -133 28 -316 0 -125 3 -182 11
-185 19 -6 28 -95 28 -297 1 -173 3 -195 19 -207 15 -11 17 -38 20 -264 4
-232 5 -253 23 -271 18 -18 19 -36 19 -251 0 -206 2 -234 18 -251 15 -17 18
-53 26 -276 5 -169 12 -258 20 -263 14 -9 24 -143 25 -347 1 -141 3 -167 18
-184 15 -16 18 -48 21 -255 3 -207 6 -239 20 -250 15 -11 17 -44 20 -259 3
-225 5 -249 23 -271 17 -23 19 -43 19 -228 0 -113 4 -212 9 -222 25 -50 31
-101 31 -278 0 -173 2 -191 19 -206 17 -14 19 -39 26 -249 5 -181 10 -238 21
-250 11 -13 16 -64 21 -220 4 -163 9 -209 21 -229 13 -20 17 -65 20 -240 4
-184 7 -216 21 -226 14 -11 16 -41 19 -211 3 -169 6 -201 20 -216 15 -16 17
-49 20 -235 3 -195 5 -218 23 -240 17 -22 19 -42 19 -221 0 -180 2 -198 19
-213 17 -14 19 -38 26 -234 6 -163 11 -224 22 -241 11 -16 16 -70 20 -210 4
-143 9 -196 21 -223 13 -28 17 -79 20 -247 3 -164 7 -213 17 -213 21 0 25 -36
25 -214 0 -147 2 -172 18 -189 15 -16 17 -45 20 -200 3 -153 6 -185 20 -200
14 -16 18 -55 23 -248 6 -190 10 -232 22 -242 13 -10 17 -49 23 -202 5 -148
10 -194 22 -207 12 -14 16 -60 20 -235 4 -183 7 -221 21 -237 13 -15 17 -49
19 -199 3 -154 6 -185 20 -200 14 -16 17 -47 20 -200 3 -154 6 -185 20 -200
15 -16 17 -49 20 -230 3 -182 6 -213 20 -223 14 -10 18 -46 25 -240 6 -178 11
-232 23 -245 11 -12 17 -63 23 -210 5 -109 16 -223 25 -259 10 -44 16 -114 16
-214 0 -130 2 -150 17 -161 16 -12 18 -38 22 -231 3 -188 6 -220 20 -230 13
-10 17 -39 22 -161 3 -81 6 7292 7 16385 l2 16532 -2055 0 c-1822 0 -2054 -2
-2049 -15z"/>
<path d="M9750 28007 c0 -20 -8 -41 -19 -51 -10 -9 -21 -36 -24 -59 -3 -23
-12 -46 -20 -52 -8 -5 -17 -26 -21 -47 -3 -20 -13 -38 -20 -41 -8 -3 -18 -35
-24 -78 -7 -46 -16 -76 -26 -81 -10 -5 -16 -23 -16 -42 0 -18 -8 -44 -19 -57
-10 -13 -21 -41 -25 -62 -4 -21 -13 -40 -20 -43 -8 -3 -16 -22 -20 -42 -3 -20
-15 -55 -26 -77 -11 -21 -20 -47 -20 -56 0 -9 -7 -22 -15 -29 -7 -6 -17 -31
-21 -55 -3 -25 -12 -49 -19 -55 -8 -6 -17 -26 -20 -43 -4 -18 -15 -45 -25 -62
-9 -16 -20 -52 -24 -79 -3 -27 -12 -59 -20 -70 -7 -12 -15 -40 -19 -64 -3 -24
-12 -51 -21 -61 -9 -9 -19 -33 -22 -52 -4 -19 -12 -41 -19 -49 -7 -8 -15 -30
-19 -49 -3 -19 -13 -42 -22 -52 -8 -9 -18 -34 -21 -55 -3 -22 -12 -46 -19 -55
-8 -8 -17 -31 -20 -50 -4 -19 -14 -42 -22 -51 -8 -10 -17 -41 -19 -70 -5 -56
-20 -108 -33 -108 -4 0 -11 -21 -15 -46 -3 -25 -12 -47 -20 -50 -7 -3 -16 -29
-20 -60 -4 -31 -12 -57 -20 -60 -7 -3 -15 -23 -19 -45 -4 -25 -12 -39 -21 -39
-10 0 -15 -10 -15 -32 0 -56 -21 -157 -36 -169 -8 -6 -14 -24 -14 -40 0 -16
-9 -38 -20 -49 -12 -12 -20 -33 -20 -53 0 -21 -8 -41 -20 -52 -12 -11 -20 -31
-20 -52 0 -19 -8 -41 -18 -51 -13 -13 -21 -41 -25 -88 -4 -43 -12 -73 -21 -80
-8 -6 -18 -34 -22 -62 -3 -28 -13 -57 -20 -63 -7 -6 -16 -27 -20 -48 -4 -20
-15 -50 -25 -67 -11 -17 -19 -42 -19 -54 0 -13 -7 -31 -16 -41 -9 -11 -20 -48
-24 -91 -9 -78 -17 -108 -30 -108 -4 0 -10 -19 -13 -42 -3 -23 -12 -47 -20
-53 -7 -5 -16 -27 -20 -49 -3 -21 -13 -46 -20 -55 -8 -9 -17 -44 -20 -79 -3
-36 -12 -71 -21 -81 -8 -9 -18 -37 -22 -61 -4 -25 -15 -59 -25 -76 -11 -17
-19 -43 -19 -57 0 -14 -8 -33 -17 -43 -12 -11 -20 -42 -24 -91 -4 -41 -14 -84
-22 -96 -8 -12 -17 -39 -21 -60 -4 -21 -14 -41 -22 -44 -8 -3 -14 -19 -14 -38
0 -18 -8 -43 -18 -56 -13 -16 -21 -49 -26 -97 l-6 -72 20 20 c11 11 33 20 49
20 20 0 30 6 34 20 4 15 14 20 40 20 26 0 36 5 40 20 4 15 14 20 36 20 20 0
34 7 41 20 6 11 20 20 31 20 11 0 22 7 25 15 3 8 21 19 39 25 18 6 36 17 38
24 3 8 21 16 39 20 19 3 41 15 51 26 9 11 28 20 42 20 14 0 34 9 45 20 11 11
30 20 43 20 12 0 30 9 40 20 10 12 29 20 47 20 16 0 30 5 30 11 0 5 16 17 36
25 19 8 58 30 85 49 27 19 55 35 63 35 8 0 26 11 40 25 15 15 37 25 53 25 17
0 33 8 41 20 9 14 23 20 51 20 30 0 40 4 44 20 4 15 14 20 36 20 19 0 34 7 40
19 6 10 27 22 46 25 20 4 39 14 42 22 3 7 11 14 18 14 6 0 23 9 36 21 13 11
36 23 51 26 15 3 29 11 32 18 2 7 20 16 38 20 18 4 44 16 57 26 13 11 30 19
38 19 8 0 26 9 40 20 14 11 39 20 54 20 18 0 34 8 41 20 7 11 22 20 34 20 12
0 33 9 47 21 15 11 43 23 62 26 19 3 35 11 35 19 0 7 17 16 38 20 20 4 43 15
50 26 8 11 25 18 48 18 24 0 34 5 34 15 0 9 13 18 31 22 17 3 36 14 42 24 7
11 20 19 29 19 10 0 27 9 38 20 11 11 31 20 44 20 13 0 35 9 49 20 14 11 31
20 39 20 8 0 29 11 48 25 19 14 45 25 59 25 14 0 36 11 49 24 18 19 22 35 22
85 0 45 -4 61 -14 61 -18 0 -26 22 -26 71 0 23 -8 51 -19 67 -13 18 -21 53
-26 106 -4 52 -11 83 -21 90 -8 6 -17 36 -21 66 -3 31 -13 60 -21 66 -11 8
-17 36 -20 95 -3 65 -9 88 -23 102 -13 12 -19 32 -19 61 0 30 -6 48 -19 60
-12 11 -21 36 -24 64 -3 26 -10 65 -16 87 -7 22 -16 69 -21 105 -5 35 -15 69
-23 75 -8 6 -18 31 -22 55 -4 25 -12 48 -17 51 -6 4 -15 46 -20 95 -6 50 -16
94 -24 100 -7 6 -16 31 -20 55 -4 24 -13 51 -21 60 -7 9 -17 39 -22 67 -4 28
-14 58 -21 67 -7 9 -15 50 -18 93 -4 60 -9 80 -23 90 -13 9 -19 26 -19 53 0
25 -7 50 -19 65 -10 13 -22 45 -26 70 -4 26 -12 53 -19 60 -8 7 -16 39 -20 72
-4 32 -13 67 -21 79 -8 11 -17 44 -21 74 -4 30 -14 59 -22 65 -8 5 -16 32 -19
60 -3 27 -12 54 -20 61 -9 7 -18 34 -21 60 -3 31 -12 53 -24 61 -13 9 -18 26
-18 58 0 24 -4 44 -9 44 -13 0 -28 54 -36 127 -4 38 -12 64 -21 67 -7 3 -17
23 -20 46 -4 22 -10 40 -14 40 -11 0 -30 57 -30 86 0 13 -9 33 -20 44 l-20 20
0 -33z"/>
<path d="M57848 3319 c-2 -59 -8 -84 -19 -92 -9 -7 -19 -29 -23 -49 -4 -21
-13 -41 -20 -45 -9 -6 -15 -46 -19 -137 -4 -96 -10 -133 -21 -145 -9 -10 -16
-37 -17 -62 -1 -73 -15 -142 -33 -154 -9 -7 -16 -26 -16 -44 0 -24 -4 -31 -19
-31 -14 0 -21 -8 -23 -27 -2 -17 -10 -29 -21 -31 -10 -2 -37 -21 -60 -43 -23
-22 -52 -42 -64 -45 -13 -3 -23 -12 -23 -19 0 -8 -9 -16 -19 -20 -11 -3 -22
-12 -25 -20 -3 -8 -22 -17 -42 -21 -34 -6 -48 -15 -99 -64 -12 -11 -29 -20
-39 -20 -9 0 -24 -7 -32 -15 -14 -13 21 -15 315 -15 l331 0 0 590 c0 325 -2
590 -4 590 -2 0 -6 -36 -8 -81z"/>
</g>
</svg>
