<svg id="af927460-334e-47e7-80bc-650bde32d404" data-name="圖層 1" xmlns="http://www.w3.org/2000/svg" xmlns:xlink="http://www.w3.org/1999/xlink" viewBox="0 0 90.71 90.71"><defs><style>.ffac4621-f728-40d5-9e40-b4ef597dc55f{fill:none;}.bdb21399-10b2-4efa-8f5a-dbbf2f58c16c{clip-path:url(#a18e9f4a-d103-43e7-85f2-1a825ff9f1e4);}.a1bba380-857b-4875-b889-4b18a51cb030{clip-path:url(#a481e7ea-4579-408b-87ab-1ecf048e9060);}.bb4229d5-6ff8-42bd-9cd1-a6a56cf4681a{fill:#6dc6bc;fill-rule:evenodd;}.b1c9c725-493b-46cd-9421-5861fdfbca97{clip-path:url(#b8b80046-dbd0-43f9-acc1-e529873fed23);}.ac0c08aa-a913-4af8-b728-0f27b2729ce4{fill:#fff;}</style><clipPath id="a18e9f4a-d103-43e7-85f2-1a825ff9f1e4" transform="translate(0 0)"><rect class="ffac4621-f728-40d5-9e40-b4ef597dc55f" width="90.71" height="90.71"/></clipPath><clipPath id="a481e7ea-4579-408b-87ab-1ecf048e9060" transform="translate(0 0)"><rect class="ffac4621-f728-40d5-9e40-b4ef597dc55f" width="90.71" height="90.71"/></clipPath><clipPath id="b8b80046-dbd0-43f9-acc1-e529873fed23" transform="translate(0 0)"><path class="ffac4621-f728-40d5-9e40-b4ef597dc55f" d="M31.31,58.23V25.56c4.11-2.92,10.76-4.71,16.14-4.7a20,20,0,0,1,15.12,6.21,21.21,21.21,0,0,1,5.37,14.6A19.11,19.11,0,0,1,62.3,55.59a20.94,20.94,0,0,1-14.85,5.79h0c-6.72,0-12.37-1.3-16.11-3.15M12.07,33.77l4.11,6.54s2.28.19,1.08-3.66c1-2,3.08-4.62,7.06-7.68V72.53c-1.72.48-4,1.39-2.44,2.94H33.71c1.56-1.56-.9-2.5-2.4-2.94V62.25a52.22,52.22,0,0,0,16.86,3.19A31.81,31.81,0,0,0,68,59a21.78,21.78,0,0,0,8.53-17.24,23.09,23.09,0,0,0-8-17.61c-5.06-4.43-12.15-7-20.4-7-21.49,0-36.1,16.59-36.1,16.59"/></clipPath></defs><title>pixiv_icon</title><g class="bdb21399-10b2-4efa-8f5a-dbbf2f58c16c"><g class="a1bba380-857b-4875-b889-4b18a51cb030"><path class="bb4229d5-6ff8-42bd-9cd1-a6a56cf4681a" d="M90.71,18.67A18.72,18.72,0,0,0,72,0H18.67A18.72,18.72,0,0,0,0,18.67V72A18.72,18.72,0,0,0,18.67,90.71H72A18.72,18.72,0,0,0,90.71,72c0,5.12,0-53.37,0-53.37" transform="translate(0 0)"/></g><g class="b1c9c725-493b-46cd-9421-5861fdfbca97"><rect class="ac0c08aa-a913-4af8-b728-0f27b2729ce4" x="11.18" y="16.3" width="66.28" height="60.06"/></g></g></svg>