<?xml version="1.0" encoding="utf-8"?>
<!-- Generator: Adobe Illustrator 23.0.3, SVG Export Plug-In . SVG Version: 6.00 Build 0)  -->
<svg version="1.1" id="ba34b25d-6397-484b-b83a-7b0ff440025f"
	 xmlns="http://www.w3.org/2000/svg" xmlns:xlink="http://www.w3.org/1999/xlink" x="0px" y="0px" viewBox="0 0 280.4 280.4"
	 style="enable-background:new 0 0 280.4 280.4;" xml:space="preserve">
<style type="text/css">
	.st0{fill:#F7BD11;}
	.st1{fill:none;stroke:#F7BD11;stroke-width:4.8937;stroke-miterlimit:10;}
</style>
<title>twitter_logo</title>
<path class="st0" d="M62.7,202.8c18.1,0.1,34.4-4.3,49.8-15.9c-16.1-1.9-26.9-9.5-32.7-23.9l13.8-0.6l0.4-1.1
	c-16.5-5.5-25.7-16.7-27-34l14.4,3.9l0.8-0.8c-14.8-13-18.9-28.3-10.4-46.7c19.5,22.6,43.6,34.9,72.3,36.9
	c0.6-6.2,0.4-12.3,1.9-17.8c6.8-25,37.7-34,57-16.8c2.2,1.9,4,2.5,6.6,1.5c5.7-2.1,11.5-4.2,17.6-6.4c-2.3,7.4-7.5,12.6-13.4,17.3
	l0.6,1L231,95l0.7,0.6c-4.4,4.4-8.5,9-13.1,13.1c-2.6,2.2-3.6,4.3-3.6,7.7c0.1,42.8-27.7,82.4-67.5,95.4
	c-28.3,9.2-55.9,6.9-82.3-7.5C64.3,203.8,63.5,203.3,62.7,202.8z"/>
<circle class="st1" cx="140.2" cy="140.2" r="135.8"/>
</svg>
